<?xml version="1.0" encoding="UTF-8" standalone="no"?>
<!DOCTYPE svg PUBLIC "-//W3C//DTD SVG 1.1//EN"
 "http://www.w3.org/Graphics/SVG/1.1/DTD/svg11.dtd">
<!-- Generated by graphviz version 2.40.1 (20161225.0304)
 -->
<!-- Title: snakemake_dag Pages: 1 -->
<svg width="623pt" height="404pt"
 viewBox="0.00 0.00 622.66 404.00" xmlns="http://www.w3.org/2000/svg" xmlns:xlink="http://www.w3.org/1999/xlink">
<g id="graph0" class="graph" transform="scale(1 1) rotate(0) translate(4 400)">
<title>snakemake_dag</title>
<polygon fill="#ffffff" stroke="transparent" points="-4,4 -4,-400 618.6597,-400 618.6597,4 -4,4"/>
<!-- 0 -->
<g id="node1" class="node">
<title>0</title>
<path fill="none" stroke="#d6d856" stroke-width="2" d="M511.002,-180C511.002,-180 448.9141,-180 448.9141,-180 442.9141,-180 436.9141,-174 436.9141,-168 436.9141,-168 436.9141,-156 436.9141,-156 436.9141,-150 442.9141,-144 448.9141,-144 448.9141,-144 511.002,-144 511.002,-144 517.002,-144 523.002,-150 523.002,-156 523.002,-156 523.002,-168 523.002,-168 523.002,-174 517.002,-180 511.002,-180"/>
<text text-anchor="middle" x="479.958" y="-159" font-family="sans" font-size="10.00" fill="#000000">fastqc_post_SE</text>
</g>
<!-- 1 -->
<g id="node2" class="node">
<title>1</title>
<path fill="none" stroke="#bed856" stroke-width="2" d="M306.002,-180C306.002,-180 243.9141,-180 243.9141,-180 237.9141,-180 231.9141,-174 231.9141,-168 231.9141,-168 231.9141,-156 231.9141,-156 231.9141,-150 237.9141,-144 243.9141,-144 243.9141,-144 306.002,-144 306.002,-144 312.002,-144 318.002,-150 318.002,-156 318.002,-156 318.002,-168 318.002,-168 318.002,-174 312.002,-180 306.002,-180"/>
<text text-anchor="middle" x="274.958" y="-159" font-family="sans" font-size="10.00" fill="#000000">fastqc_post_PE</text>
</g>
<!-- 2 -->
<g id="node3" class="node">
<title>2</title>
<path fill="none" stroke="#d8b456" stroke-width="2" d="M400.0451,-180C400.0451,-180 347.871,-180 347.871,-180 341.871,-180 335.871,-174 335.871,-168 335.871,-168 335.871,-156 335.871,-156 335.871,-150 341.871,-144 347.871,-144 347.871,-144 400.0451,-144 400.0451,-144 406.0451,-144 412.0451,-150 412.0451,-156 412.0451,-156 412.0451,-168 412.0451,-168 412.0451,-174 406.0451,-180 400.0451,-180"/>
<text text-anchor="middle" x="373.958" y="-159" font-family="sans" font-size="10.00" fill="#000000">map_star_SE</text>
</g>
<!-- 3 -->
<g id="node4" class="node">
<title>3</title>
<path fill="none" stroke="#78d856" stroke-width="2" d="M404.1007,-108C404.1007,-108 335.8153,-108 335.8153,-108 329.8153,-108 323.8153,-102 323.8153,-96 323.8153,-96 323.8153,-84 323.8153,-84 323.8153,-78 329.8153,-72 335.8153,-72 335.8153,-72 404.1007,-72 404.1007,-72 410.1007,-72 416.1007,-78 416.1007,-84 416.1007,-84 416.1007,-96 416.1007,-96 416.1007,-102 410.1007,-108 404.1007,-108"/>
<text text-anchor="middle" x="369.958" y="-87" font-family="sans" font-size="10.00" fill="#000000">wigToBigWig_SE</text>
</g>
<!-- 2&#45;&gt;3 -->
<g id="edge5" class="edge">
<title>2&#45;&gt;3</title>
<path fill="none" stroke="#c0c0c0" stroke-width="2" d="M372.9486,-143.8314C372.5208,-136.131 372.0121,-126.9743 371.5367,-118.4166"/>
<polygon fill="#c0c0c0" stroke="#c0c0c0" stroke-width="2" points="375.0304,-118.2037 370.981,-108.4133 368.0412,-118.592 375.0304,-118.2037"/>
</g>
<!-- 4 -->
<g id="node5" class="node">
<title>4</title>
<path fill="none" stroke="#5682d8" stroke-width="2" d="M293.8741,-108C293.8741,-108 248.0419,-108 248.0419,-108 242.0419,-108 236.0419,-102 236.0419,-96 236.0419,-96 236.0419,-84 236.0419,-84 236.0419,-78 242.0419,-72 248.0419,-72 248.0419,-72 293.8741,-72 293.8741,-72 299.8741,-72 305.8741,-78 305.8741,-84 305.8741,-84 305.8741,-96 305.8741,-96 305.8741,-102 299.8741,-108 293.8741,-108"/>
<text text-anchor="middle" x="270.958" y="-87" font-family="sans" font-size="10.00" fill="#000000">stringtie_SE</text>
</g>
<!-- 2&#45;&gt;4 -->
<g id="edge6" class="edge">
<title>2&#45;&gt;4</title>
<path fill="none" stroke="#c0c0c0" stroke-width="2" d="M347.9668,-143.8314C335.0364,-134.7927 319.2358,-123.7476 305.3197,-114.0198"/>
<polygon fill="#c0c0c0" stroke="#c0c0c0" stroke-width="2" points="307.1423,-111.0235 296.9409,-108.1628 303.1318,-116.7608 307.1423,-111.0235"/>
</g>
<!-- 10 -->
<g id="node11" class="node">
<title>10</title>
<path fill="none" stroke="#d88556" stroke-width="2" d="M235.958,-36C235.958,-36 205.958,-36 205.958,-36 199.958,-36 193.958,-30 193.958,-24 193.958,-24 193.958,-12 193.958,-12 193.958,-6 199.958,0 205.958,0 205.958,0 235.958,0 235.958,0 241.958,0 247.958,-6 247.958,-12 247.958,-12 247.958,-24 247.958,-24 247.958,-30 241.958,-36 235.958,-36"/>
<text text-anchor="middle" x="220.958" y="-15" font-family="sans" font-size="10.00" fill="#000000">report</text>
</g>
<!-- 2&#45;&gt;10 -->
<g id="edge18" class="edge">
<title>2&#45;&gt;10</title>
<path fill="none" stroke="#c0c0c0" stroke-width="2" d="M396.7148,-143.8333C417.5674,-124.9717 442.7043,-95.055 424.958,-72 404.7411,-45.7352 311.1945,-29.6221 258.0745,-22.431"/>
<polygon fill="#c0c0c0" stroke="#c0c0c0" stroke-width="2" points="258.3937,-18.9429 248.0232,-21.1114 257.4825,-25.8834 258.3937,-18.9429"/>
</g>
<!-- 3&#45;&gt;10 -->
<g id="edge17" class="edge">
<title>3&#45;&gt;10</title>
<path fill="none" stroke="#c0c0c0" stroke-width="2" d="M332.359,-71.8314C309.3245,-60.7006 279.9935,-46.5272 257.2107,-35.5181"/>
<polygon fill="#c0c0c0" stroke="#c0c0c0" stroke-width="2" points="258.7269,-32.3636 248.2002,-31.164 255.6813,-38.6663 258.7269,-32.3636"/>
</g>
<!-- 4&#45;&gt;10 -->
<g id="edge16" class="edge">
<title>4&#45;&gt;10</title>
<path fill="none" stroke="#c0c0c0" stroke-width="2" d="M258.3409,-71.8314C252.6408,-63.6232 245.7917,-53.7606 239.5221,-44.7323"/>
<polygon fill="#c0c0c0" stroke="#c0c0c0" stroke-width="2" points="242.3238,-42.6306 233.745,-36.4133 236.5742,-46.6234 242.3238,-42.6306"/>
</g>
<!-- 5 -->
<g id="node6" class="node">
<title>5</title>
<path fill="none" stroke="#56c9d8" stroke-width="2" d="M388.9706,-396C388.9706,-396 272.9454,-396 272.9454,-396 266.9454,-396 260.9454,-390 260.9454,-384 260.9454,-384 260.9454,-372 260.9454,-372 260.9454,-366 266.9454,-360 272.9454,-360 272.9454,-360 388.9706,-360 388.9706,-360 394.9706,-360 400.9706,-366 400.9706,-372 400.9706,-372 400.9706,-384 400.9706,-384 400.9706,-390 394.9706,-396 388.9706,-396"/>
<text text-anchor="middle" x="330.958" y="-380" font-family="sans" font-size="10.00" fill="#000000">fastqc_pre_PE</text>
<text text-anchor="middle" x="330.958" y="-370" font-family="sans" font-size="10.00" fill="#000000">sample: Paired&#45;end_sample</text>
</g>
<!-- 17 -->
<g id="node18" class="node">
<title>17</title>
<path fill="none" stroke="#d85656" stroke-width="2" d="M358.8182,-324C358.8182,-324 303.0978,-324 303.0978,-324 297.0978,-324 291.0978,-318 291.0978,-312 291.0978,-312 291.0978,-300 291.0978,-300 291.0978,-294 297.0978,-288 303.0978,-288 303.0978,-288 358.8182,-288 358.8182,-288 364.8182,-288 370.8182,-294 370.8182,-300 370.8182,-300 370.8182,-312 370.8182,-312 370.8182,-318 364.8182,-324 358.8182,-324"/>
<text text-anchor="middle" x="330.958" y="-303" font-family="sans" font-size="10.00" fill="#000000">trimgalore_PE</text>
</g>
<!-- 5&#45;&gt;17 -->
<g id="edge26" class="edge">
<title>5&#45;&gt;17</title>
<path fill="none" stroke="#c0c0c0" stroke-width="2" d="M330.958,-359.8314C330.958,-352.131 330.958,-342.9743 330.958,-334.4166"/>
<polygon fill="#c0c0c0" stroke="#c0c0c0" stroke-width="2" points="334.4581,-334.4132 330.958,-324.4133 327.4581,-334.4133 334.4581,-334.4132"/>
</g>
<!-- 6 -->
<g id="node7" class="node">
<title>6</title>
<path fill="none" stroke="#a7d856" stroke-width="2" d="M602.8619,-396C602.8619,-396 487.0541,-396 487.0541,-396 481.0541,-396 475.0541,-390 475.0541,-384 475.0541,-384 475.0541,-372 475.0541,-372 475.0541,-366 481.0541,-360 487.0541,-360 487.0541,-360 602.8619,-360 602.8619,-360 608.8619,-360 614.8619,-366 614.8619,-372 614.8619,-372 614.8619,-384 614.8619,-384 614.8619,-390 608.8619,-396 602.8619,-396"/>
<text text-anchor="middle" x="544.958" y="-380" font-family="sans" font-size="10.00" fill="#000000">fastqc_pre_SE</text>
<text text-anchor="middle" x="544.958" y="-370" font-family="sans" font-size="10.00" fill="#000000">sample: Single&#45;end_sample</text>
</g>
<!-- 16 -->
<g id="node17" class="node">
<title>16</title>
<path fill="none" stroke="#56d8a2" stroke-width="2" d="M572.8182,-324C572.8182,-324 517.0978,-324 517.0978,-324 511.0978,-324 505.0978,-318 505.0978,-312 505.0978,-312 505.0978,-300 505.0978,-300 505.0978,-294 511.0978,-288 517.0978,-288 517.0978,-288 572.8182,-288 572.8182,-288 578.8182,-288 584.8182,-294 584.8182,-300 584.8182,-300 584.8182,-312 584.8182,-312 584.8182,-318 578.8182,-324 572.8182,-324"/>
<text text-anchor="middle" x="544.958" y="-303" font-family="sans" font-size="10.00" fill="#000000">trimgalore_SE</text>
</g>
<!-- 6&#45;&gt;16 -->
<g id="edge25" class="edge">
<title>6&#45;&gt;16</title>
<path fill="none" stroke="#c0c0c0" stroke-width="2" d="M544.958,-359.8314C544.958,-352.131 544.958,-342.9743 544.958,-334.4166"/>
<polygon fill="#c0c0c0" stroke="#c0c0c0" stroke-width="2" points="548.4581,-334.4132 544.958,-324.4133 541.4581,-334.4133 548.4581,-334.4132"/>
</g>
<!-- 7 -->
<g id="node8" class="node">
<title>7</title>
<path fill="none" stroke="#569ad8" stroke-width="2" d="M57.8741,-108C57.8741,-108 12.0419,-108 12.0419,-108 6.0419,-108 .0419,-102 .0419,-96 .0419,-96 .0419,-84 .0419,-84 .0419,-78 6.0419,-72 12.0419,-72 12.0419,-72 57.8741,-72 57.8741,-72 63.8741,-72 69.8741,-78 69.8741,-84 69.8741,-84 69.8741,-96 69.8741,-96 69.8741,-102 63.8741,-108 57.8741,-108"/>
<text text-anchor="middle" x="34.958" y="-87" font-family="sans" font-size="10.00" fill="#000000">stringtie_PE</text>
</g>
<!-- 7&#45;&gt;10 -->
<g id="edge14" class="edge">
<title>7&#45;&gt;10</title>
<path fill="none" stroke="#c0c0c0" stroke-width="2" d="M69.9432,-76.4574C102.6039,-63.8145 151.1589,-45.019 184.3374,-32.1757"/>
<polygon fill="#c0c0c0" stroke="#c0c0c0" stroke-width="2" points="185.621,-35.432 193.6832,-28.558 183.094,-28.904 185.621,-35.432"/>
</g>
<!-- 8 -->
<g id="node9" class="node">
<title>8</title>
<path fill="none" stroke="#d89c56" stroke-width="2" d="M126.0451,-180C126.0451,-180 73.871,-180 73.871,-180 67.871,-180 61.871,-174 61.871,-168 61.871,-168 61.871,-156 61.871,-156 61.871,-150 67.871,-144 73.871,-144 73.871,-144 126.0451,-144 126.0451,-144 132.0451,-144 138.0451,-150 138.0451,-156 138.0451,-156 138.0451,-168 138.0451,-168 138.0451,-174 132.0451,-180 126.0451,-180"/>
<text text-anchor="middle" x="99.958" y="-159" font-family="sans" font-size="10.00" fill="#000000">map_star_PE</text>
</g>
<!-- 8&#45;&gt;7 -->
<g id="edge8" class="edge">
<title>8&#45;&gt;7</title>
<path fill="none" stroke="#c0c0c0" stroke-width="2" d="M83.5558,-143.8314C75.9165,-135.3694 66.6897,-125.1489 58.3373,-115.8971"/>
<polygon fill="#c0c0c0" stroke="#c0c0c0" stroke-width="2" points="60.8801,-113.4906 51.5811,-108.4133 55.6842,-118.1813 60.8801,-113.4906"/>
</g>
<!-- 9 -->
<g id="node10" class="node">
<title>9</title>
<path fill="none" stroke="#d8c356" stroke-width="2" d="M206.1007,-108C206.1007,-108 137.8153,-108 137.8153,-108 131.8153,-108 125.8153,-102 125.8153,-96 125.8153,-96 125.8153,-84 125.8153,-84 125.8153,-78 131.8153,-72 137.8153,-72 137.8153,-72 206.1007,-72 206.1007,-72 212.1007,-72 218.1007,-78 218.1007,-84 218.1007,-84 218.1007,-96 218.1007,-96 218.1007,-102 212.1007,-108 206.1007,-108"/>
<text text-anchor="middle" x="171.958" y="-87" font-family="sans" font-size="10.00" fill="#000000">wigToBigWig_PE</text>
</g>
<!-- 8&#45;&gt;9 -->
<g id="edge12" class="edge">
<title>8&#45;&gt;9</title>
<path fill="none" stroke="#c0c0c0" stroke-width="2" d="M118.1266,-143.8314C126.6733,-135.2848 137.0137,-124.9443 146.3382,-115.6198"/>
<polygon fill="#c0c0c0" stroke="#c0c0c0" stroke-width="2" points="148.9485,-117.9592 153.5447,-108.4133 143.9988,-113.0095 148.9485,-117.9592"/>
</g>
<!-- 8&#45;&gt;10 -->
<g id="edge15" class="edge">
<title>8&#45;&gt;10</title>
<path fill="none" stroke="#c0c0c0" stroke-width="2" d="M98.9412,-143.95C98.7671,-124.3573 101.3043,-93.0559 116.958,-72 133.3466,-49.9556 161.3777,-36.1433 184.2115,-28.0116"/>
<polygon fill="#c0c0c0" stroke="#c0c0c0" stroke-width="2" points="185.5713,-31.2477 193.9525,-24.7665 183.3588,-24.6066 185.5713,-31.2477"/>
</g>
<!-- 9&#45;&gt;10 -->
<g id="edge13" class="edge">
<title>9&#45;&gt;10</title>
<path fill="none" stroke="#c0c0c0" stroke-width="2" d="M184.3228,-71.8314C189.9089,-63.6232 196.621,-53.7606 202.7652,-44.7323"/>
<polygon fill="#c0c0c0" stroke="#c0c0c0" stroke-width="2" points="205.694,-46.6496 208.4268,-36.4133 199.907,-42.7112 205.694,-46.6496"/>
</g>
<!-- 11 -->
<g id="node12" class="node">
<title>11</title>
<path fill="none" stroke="#61d856" stroke-width="2" d="M531.6625,-252C531.6625,-252 428.2536,-252 428.2536,-252 422.2536,-252 416.2536,-246 416.2536,-240 416.2536,-240 416.2536,-228 416.2536,-228 416.2536,-222 422.2536,-216 428.2536,-216 428.2536,-216 531.6625,-216 531.6625,-216 537.6625,-216 543.6625,-222 543.6625,-228 543.6625,-228 543.6625,-240 543.6625,-240 543.6625,-246 537.6625,-252 531.6625,-252"/>
<text text-anchor="middle" x="479.958" y="-231" font-family="sans" font-size="10.00" fill="#000000">remove_rRNA_tRNA_SE</text>
</g>
<!-- 11&#45;&gt;0 -->
<g id="edge1" class="edge">
<title>11&#45;&gt;0</title>
<path fill="none" stroke="#c0c0c0" stroke-width="2" d="M479.958,-215.8314C479.958,-208.131 479.958,-198.9743 479.958,-190.4166"/>
<polygon fill="#c0c0c0" stroke="#c0c0c0" stroke-width="2" points="483.4581,-190.4132 479.958,-180.4133 476.4581,-190.4133 483.4581,-190.4132"/>
</g>
<!-- 11&#45;&gt;2 -->
<g id="edge4" class="edge">
<title>11&#45;&gt;2</title>
<path fill="none" stroke="#c0c0c0" stroke-width="2" d="M453.2097,-215.8314C439.9028,-206.7927 423.642,-195.7476 409.3205,-186.0198"/>
<polygon fill="#c0c0c0" stroke="#c0c0c0" stroke-width="2" points="410.9365,-182.8864 400.6977,-180.1628 407.0033,-188.677 410.9365,-182.8864"/>
</g>
<!-- 12 -->
<g id="node13" class="node">
<title>12</title>
<path fill="none" stroke="#56d892" stroke-width="2" d="M385.6625,-252C385.6625,-252 282.2536,-252 282.2536,-252 276.2536,-252 270.2536,-246 270.2536,-240 270.2536,-240 270.2536,-228 270.2536,-228 270.2536,-222 276.2536,-216 282.2536,-216 282.2536,-216 385.6625,-216 385.6625,-216 391.6625,-216 397.6625,-222 397.6625,-228 397.6625,-228 397.6625,-240 397.6625,-240 397.6625,-246 391.6625,-252 385.6625,-252"/>
<text text-anchor="middle" x="333.958" y="-231" font-family="sans" font-size="10.00" fill="#000000">remove_rRNA_tRNA_PE</text>
</g>
<!-- 12&#45;&gt;1 -->
<g id="edge2" class="edge">
<title>12&#45;&gt;1</title>
<path fill="none" stroke="#c0c0c0" stroke-width="2" d="M319.0698,-215.8314C312.205,-207.454 303.9279,-197.3531 296.4069,-188.1749"/>
<polygon fill="#c0c0c0" stroke="#c0c0c0" stroke-width="2" points="299.0921,-185.9297 290.0467,-180.4133 293.6777,-190.3665 299.0921,-185.9297"/>
</g>
<!-- 12&#45;&gt;8 -->
<g id="edge11" class="edge">
<title>12&#45;&gt;8</title>
<path fill="none" stroke="#c0c0c0" stroke-width="2" d="M275.212,-215.9243C235.9841,-203.8542 185.0265,-188.1749 148.1796,-176.8374"/>
<polygon fill="#c0c0c0" stroke="#c0c0c0" stroke-width="2" points="148.7697,-173.3571 138.1826,-173.7614 146.7111,-180.0476 148.7697,-173.3571"/>
</g>
<!-- 13 -->
<g id="node14" class="node">
<title>13</title>
<path fill="none" stroke="#56d87b" stroke-width="2" d="M240.0959,-252C240.0959,-252 201.8202,-252 201.8202,-252 195.8202,-252 189.8202,-246 189.8202,-240 189.8202,-240 189.8202,-228 189.8202,-228 189.8202,-222 195.8202,-216 201.8202,-216 201.8202,-216 240.0959,-216 240.0959,-216 246.0959,-216 252.0959,-222 252.0959,-228 252.0959,-228 252.0959,-240 252.0959,-240 252.0959,-246 246.0959,-252 240.0959,-252"/>
<text text-anchor="middle" x="220.958" y="-231" font-family="sans" font-size="10.00" fill="#000000">index_star</text>
</g>
<!-- 13&#45;&gt;2 -->
<g id="edge3" class="edge">
<title>13&#45;&gt;2</title>
<path fill="none" stroke="#c0c0c0" stroke-width="2" d="M252.289,-219.256C273.591,-209.2316 302.1727,-195.7813 326.2813,-184.4361"/>
<polygon fill="#c0c0c0" stroke="#c0c0c0" stroke-width="2" points="328.0601,-187.4672 335.618,-180.0423 325.0795,-181.1335 328.0601,-187.4672"/>
</g>
<!-- 13&#45;&gt;8 -->
<g id="edge10" class="edge">
<title>13&#45;&gt;8</title>
<path fill="none" stroke="#c0c0c0" stroke-width="2" d="M190.4246,-215.8314C174.948,-206.6221 155.9711,-195.3301 139.4017,-185.4706"/>
<polygon fill="#c0c0c0" stroke="#c0c0c0" stroke-width="2" points="140.8651,-182.2687 130.4816,-180.1628 137.2856,-188.2843 140.8651,-182.2687"/>
</g>
<!-- 14 -->
<g id="node15" class="node">
<title>14</title>
<path fill="none" stroke="#56b1d8" stroke-width="2" d="M150.6966,-324C150.6966,-324 77.2194,-324 77.2194,-324 71.2194,-324 65.2194,-318 65.2194,-312 65.2194,-312 65.2194,-300 65.2194,-300 65.2194,-294 71.2194,-288 77.2194,-288 77.2194,-288 150.6966,-288 150.6966,-288 156.6966,-288 162.6966,-294 162.6966,-300 162.6966,-300 162.6966,-312 162.6966,-312 162.6966,-318 156.6966,-324 150.6966,-324"/>
<text text-anchor="middle" x="113.958" y="-303" font-family="sans" font-size="10.00" fill="#000000">gunzip_annotation</text>
</g>
<!-- 14&#45;&gt;4 -->
<g id="edge7" class="edge">
<title>14&#45;&gt;4</title>
<path fill="none" stroke="#c0c0c0" stroke-width="2" d="M124.9805,-287.9563C143.861,-257.4473 184.1196,-194.0992 222.958,-144 230.2541,-134.5885 238.74,-124.7309 246.53,-116.0525"/>
<polygon fill="#c0c0c0" stroke="#c0c0c0" stroke-width="2" points="249.2955,-118.2136 253.4342,-108.4606 244.1167,-113.504 249.2955,-118.2136"/>
</g>
<!-- 14&#45;&gt;7 -->
<g id="edge9" class="edge">
<title>14&#45;&gt;7</title>
<path fill="none" stroke="#c0c0c0" stroke-width="2" d="M103.3372,-287.8375C89.7666,-263.8892 66.4263,-220.0864 52.958,-180 46.202,-159.8919 41.605,-136.3592 38.7484,-118.4012"/>
<polygon fill="#c0c0c0" stroke="#c0c0c0" stroke-width="2" points="42.1749,-117.6498 37.2278,-108.2809 35.2526,-118.69 42.1749,-117.6498"/>
</g>
<!-- 14&#45;&gt;13 -->
<g id="edge23" class="edge">
<title>14&#45;&gt;13</title>
<path fill="none" stroke="#c0c0c0" stroke-width="2" d="M140.9586,-287.8314C154.3911,-278.7927 170.8053,-267.7476 185.2619,-258.0198"/>
<polygon fill="#c0c0c0" stroke="#c0c0c0" stroke-width="2" points="187.6234,-260.6494 193.966,-252.1628 183.7155,-254.8418 187.6234,-260.6494"/>
</g>
<!-- 15 -->
<g id="node16" class="node">
<title>15</title>
<path fill="none" stroke="#8fd856" stroke-width="2" stroke-dasharray="5,2" d="M475.8229,-324C475.8229,-324 400.0931,-324 400.0931,-324 394.0931,-324 388.0931,-318 388.0931,-312 388.0931,-312 388.0931,-300 388.0931,-300 388.0931,-294 394.0931,-288 400.0931,-288 400.0931,-288 475.8229,-288 475.8229,-288 481.8229,-288 487.8229,-294 487.8229,-300 487.8229,-300 487.8229,-312 487.8229,-312 487.8229,-318 481.8229,-324 475.8229,-324"/>
<text text-anchor="middle" x="437.958" y="-303" font-family="sans" font-size="10.00" fill="#000000">index_rRNA_tRNA</text>
</g>
<!-- 15&#45;&gt;11 -->
<g id="edge19" class="edge">
<title>15&#45;&gt;11</title>
<path fill="none" stroke="#c0c0c0" stroke-width="2" d="M448.5564,-287.8314C453.2457,-279.7925 458.8608,-270.1666 464.0378,-261.2918"/>
<polygon fill="#c0c0c0" stroke="#c0c0c0" stroke-width="2" points="467.2014,-262.8146 469.2169,-252.4133 461.1549,-259.2875 467.2014,-262.8146"/>
</g>
<!-- 15&#45;&gt;12 -->
<g id="edge21" class="edge">
<title>15&#45;&gt;12</title>
<path fill="none" stroke="#c0c0c0" stroke-width="2" d="M411.7144,-287.8314C398.6585,-278.7927 382.7046,-267.7476 368.6533,-258.0198"/>
<polygon fill="#c0c0c0" stroke="#c0c0c0" stroke-width="2" points="370.4074,-254.9773 360.1932,-252.1628 366.4229,-260.7326 370.4074,-254.9773"/>
</g>
<!-- 16&#45;&gt;11 -->
<g id="edge20" class="edge">
<title>16&#45;&gt;11</title>
<path fill="none" stroke="#c0c0c0" stroke-width="2" d="M528.5558,-287.8314C520.9165,-279.3694 511.6897,-269.1489 503.3373,-259.8971"/>
<polygon fill="#c0c0c0" stroke="#c0c0c0" stroke-width="2" points="505.8801,-257.4906 496.5811,-252.4133 500.6842,-262.1813 505.8801,-257.4906"/>
</g>
<!-- 17&#45;&gt;12 -->
<g id="edge22" class="edge">
<title>17&#45;&gt;12</title>
<path fill="none" stroke="#c0c0c0" stroke-width="2" d="M331.715,-287.8314C332.0359,-280.131 332.4174,-270.9743 332.774,-262.4166"/>
<polygon fill="#c0c0c0" stroke="#c0c0c0" stroke-width="2" points="336.2714,-262.5503 333.1908,-252.4133 329.2774,-262.2589 336.2714,-262.5503"/>
</g>
<!-- 18 -->
<g id="node19" class="node">
<title>18</title>
<path fill="none" stroke="#56d8b9" stroke-width="2" d="M255.6252,-324C255.6252,-324 192.2909,-324 192.2909,-324 186.2909,-324 180.2909,-318 180.2909,-312 180.2909,-312 180.2909,-300 180.2909,-300 180.2909,-294 186.2909,-288 192.2909,-288 192.2909,-288 255.6252,-288 255.6252,-288 261.6252,-288 267.6252,-294 267.6252,-300 267.6252,-300 267.6252,-312 267.6252,-312 267.6252,-318 261.6252,-324 255.6252,-324"/>
<text text-anchor="middle" x="223.958" y="-303" font-family="sans" font-size="10.00" fill="#000000">gunzip_genome</text>
</g>
<!-- 18&#45;&gt;13 -->
<g id="edge24" class="edge">
<title>18&#45;&gt;13</title>
<path fill="none" stroke="#c0c0c0" stroke-width="2" d="M223.201,-287.8314C222.8801,-280.131 222.4986,-270.9743 222.142,-262.4166"/>
<polygon fill="#c0c0c0" stroke="#c0c0c0" stroke-width="2" points="225.6386,-262.2589 221.7252,-252.4133 218.6447,-262.5503 225.6386,-262.2589"/>
</g>
</g>
</svg>
