<?xml version="1.0" encoding="UTF-8" standalone="no"?>
<!DOCTYPE svg PUBLIC "-//W3C//DTD SVG 1.1//EN"
 "http://www.w3.org/Graphics/SVG/1.1/DTD/svg11.dtd">
<!-- Generated by graphviz version 2.40.1 (20161225.0304)
 -->
<!-- Title: snakemake_dag Pages: 1 -->
<svg width="1000pt" height="476pt"
 viewBox="0.00 0.00 1000.32 476.00" xmlns="http://www.w3.org/2000/svg" xmlns:xlink="http://www.w3.org/1999/xlink">
<g id="graph0" class="graph" transform="scale(1 1) rotate(0) translate(4 472)">
<title>snakemake_dag</title>
<polygon fill="#ffffff" stroke="transparent" points="-4,4 -4,-472 996.32,-472 996.32,4 -4,4"/>
<!-- 0 -->
<g id="node1" class="node">
<title>0</title>
<path fill="none" stroke="#56d88a" stroke-width="2" d="M240.6177,-108C240.6177,-108 194.7856,-108 194.7856,-108 188.7856,-108 182.7856,-102 182.7856,-96 182.7856,-96 182.7856,-84 182.7856,-84 182.7856,-78 188.7856,-72 194.7856,-72 194.7856,-72 240.6177,-72 240.6177,-72 246.6177,-72 252.6177,-78 252.6177,-84 252.6177,-84 252.6177,-96 252.6177,-96 252.6177,-102 246.6177,-108 240.6177,-108"/>
<text text-anchor="middle" x="217.7017" y="-87" font-family="sans" font-size="10.00" fill="#000000">stringtie_SE</text>
</g>
<!-- 8 -->
<g id="node9" class="node">
<title>8</title>
<path fill="none" stroke="#d86656" stroke-width="2" d="M571.7017,-36C571.7017,-36 541.7017,-36 541.7017,-36 535.7017,-36 529.7017,-30 529.7017,-24 529.7017,-24 529.7017,-12 529.7017,-12 529.7017,-6 535.7017,0 541.7017,0 541.7017,0 571.7017,0 571.7017,0 577.7017,0 583.7017,-6 583.7017,-12 583.7017,-12 583.7017,-24 583.7017,-24 583.7017,-30 577.7017,-36 571.7017,-36"/>
<text text-anchor="middle" x="556.7017" y="-15" font-family="sans" font-size="10.00" fill="#000000">report</text>
</g>
<!-- 0&#45;&gt;8 -->
<g id="edge23" class="edge">
<title>0&#45;&gt;8</title>
<path fill="none" stroke="#c0c0c0" stroke-width="2" d="M252.7112,-80.1235C262.9839,-77.3534 274.2625,-74.4357 284.7017,-72 368.2148,-52.5146 467.1967,-34.0016 519.689,-24.5415"/>
<polygon fill="#c0c0c0" stroke="#c0c0c0" stroke-width="2" points="520.3244,-27.9834 529.5492,-22.7726 519.0883,-21.0934 520.3244,-27.9834"/>
</g>
<!-- 1 -->
<g id="node2" class="node">
<title>1</title>
<path fill="none" stroke="#78d856" stroke-width="2" d="M962.6177,-108C962.6177,-108 916.7856,-108 916.7856,-108 910.7856,-108 904.7856,-102 904.7856,-96 904.7856,-96 904.7856,-84 904.7856,-84 904.7856,-78 910.7856,-72 916.7856,-72 916.7856,-72 962.6177,-72 962.6177,-72 968.6177,-72 974.6177,-78 974.6177,-84 974.6177,-84 974.6177,-96 974.6177,-96 974.6177,-102 968.6177,-108 962.6177,-108"/>
<text text-anchor="middle" x="939.7017" y="-87" font-family="sans" font-size="10.00" fill="#000000">stringtie_PE</text>
</g>
<!-- 1&#45;&gt;8 -->
<g id="edge25" class="edge">
<title>1&#45;&gt;8</title>
<path fill="none" stroke="#c0c0c0" stroke-width="2" d="M904.7337,-78.8944C896.2647,-76.4235 887.2017,-73.9593 878.7017,-72 776.8335,-48.5189 654.6222,-30.8442 594.2485,-22.7965"/>
<polygon fill="#c0c0c0" stroke="#c0c0c0" stroke-width="2" points="594.4323,-19.2904 584.0603,-21.4518 593.5164,-26.2303 594.4323,-19.2904"/>
</g>
<!-- 2 -->
<g id="node3" class="node">
<title>2</title>
<path fill="none" stroke="#56d89a" stroke-width="2" d="M127.6056,-468C127.6056,-468 11.7978,-468 11.7978,-468 5.7978,-468 -.2022,-462 -.2022,-456 -.2022,-456 -.2022,-444 -.2022,-444 -.2022,-438 5.7978,-432 11.7978,-432 11.7978,-432 127.6056,-432 127.6056,-432 133.6056,-432 139.6056,-438 139.6056,-444 139.6056,-444 139.6056,-456 139.6056,-456 139.6056,-462 133.6056,-468 127.6056,-468"/>
<text text-anchor="middle" x="69.7017" y="-452" font-family="sans" font-size="10.00" fill="#000000">fastqc_pre_SE</text>
<text text-anchor="middle" x="69.7017" y="-442" font-family="sans" font-size="10.00" fill="#000000">sample: Single&#45;end_sample</text>
</g>
<!-- 23 -->
<g id="node24" class="node">
<title>23</title>
<path fill="none" stroke="#568ad8" stroke-width="2" d="M97.5619,-396C97.5619,-396 41.8415,-396 41.8415,-396 35.8415,-396 29.8415,-390 29.8415,-384 29.8415,-384 29.8415,-372 29.8415,-372 29.8415,-366 35.8415,-360 41.8415,-360 41.8415,-360 97.5619,-360 97.5619,-360 103.5619,-360 109.5619,-366 109.5619,-372 109.5619,-372 109.5619,-384 109.5619,-384 109.5619,-390 103.5619,-396 97.5619,-396"/>
<text text-anchor="middle" x="69.7017" y="-375" font-family="sans" font-size="10.00" fill="#000000">trimgalore_SE</text>
</g>
<!-- 2&#45;&gt;23 -->
<g id="edge47" class="edge">
<title>2&#45;&gt;23</title>
<path fill="none" stroke="#c0c0c0" stroke-width="2" d="M69.7017,-431.8314C69.7017,-424.131 69.7017,-414.9743 69.7017,-406.4166"/>
<polygon fill="#c0c0c0" stroke="#c0c0c0" stroke-width="2" points="73.2018,-406.4132 69.7017,-396.4133 66.2018,-406.4133 73.2018,-406.4132"/>
</g>
<!-- 3 -->
<g id="node4" class="node">
<title>3</title>
<path fill="none" stroke="#566bd8" stroke-width="2" d="M334.0387,-180C334.0387,-180 239.3646,-180 239.3646,-180 233.3646,-180 227.3646,-174 227.3646,-168 227.3646,-168 227.3646,-156 227.3646,-156 227.3646,-150 233.3646,-144 239.3646,-144 239.3646,-144 334.0387,-144 334.0387,-144 340.0387,-144 346.0387,-150 346.0387,-156 346.0387,-156 346.0387,-168 346.0387,-168 346.0387,-174 340.0387,-180 334.0387,-180"/>
<text text-anchor="middle" x="286.7017" y="-159" font-family="sans" font-size="10.00" fill="#000000">remove_duplicates_SE</text>
</g>
<!-- 3&#45;&gt;0 -->
<g id="edge3" class="edge">
<title>3&#45;&gt;0</title>
<path fill="none" stroke="#c0c0c0" stroke-width="2" d="M269.29,-143.8314C261.1806,-135.3694 251.386,-125.1489 242.5197,-115.8971"/>
<polygon fill="#c0c0c0" stroke="#c0c0c0" stroke-width="2" points="244.7938,-113.2115 235.3477,-108.4133 239.7398,-118.0549 244.7938,-113.2115"/>
</g>
<!-- 6 -->
<g id="node7" class="node">
<title>6</title>
<path fill="none" stroke="#d8bc56" stroke-width="2" d="M528.5338,-108C528.5338,-108 458.8695,-108 458.8695,-108 452.8695,-108 446.8695,-102 446.8695,-96 446.8695,-96 446.8695,-84 446.8695,-84 446.8695,-78 452.8695,-72 458.8695,-72 458.8695,-72 528.5338,-72 528.5338,-72 534.5338,-72 540.5338,-78 540.5338,-84 540.5338,-84 540.5338,-96 540.5338,-96 540.5338,-102 534.5338,-108 528.5338,-108"/>
<text text-anchor="middle" x="493.7017" y="-87" font-family="sans" font-size="10.00" fill="#000000">quantification_SE</text>
</g>
<!-- 3&#45;&gt;6 -->
<g id="edge13" class="edge">
<title>3&#45;&gt;6</title>
<path fill="none" stroke="#c0c0c0" stroke-width="2" d="M338.6693,-143.9243C368.6034,-133.5125 406.2585,-120.415 436.9621,-109.7355"/>
<polygon fill="#c0c0c0" stroke="#c0c0c0" stroke-width="2" points="438.3728,-112.9506 446.668,-106.3595 436.0732,-106.3391 438.3728,-112.9506"/>
</g>
<!-- 7 -->
<g id="node8" class="node">
<title>7</title>
<path fill="none" stroke="#56d8d0" stroke-width="2" d="M416.7933,-108C416.7933,-108 344.61,-108 344.61,-108 338.61,-108 332.61,-102 332.61,-96 332.61,-96 332.61,-84 332.61,-84 332.61,-78 338.61,-72 344.61,-72 344.61,-72 416.7933,-72 416.7933,-72 422.7933,-72 428.7933,-78 428.7933,-84 428.7933,-84 428.7933,-96 428.7933,-96 428.7933,-102 422.7933,-108 416.7933,-108"/>
<text text-anchor="middle" x="380.7017" y="-87" font-family="sans" font-size="10.00" fill="#000000">bamToBigWig_SE</text>
</g>
<!-- 3&#45;&gt;7 -->
<g id="edge18" class="edge">
<title>3&#45;&gt;7</title>
<path fill="none" stroke="#c0c0c0" stroke-width="2" d="M310.4218,-143.8314C322.111,-134.8779 336.3704,-123.9558 348.9826,-114.2955"/>
<polygon fill="#c0c0c0" stroke="#c0c0c0" stroke-width="2" points="351.1786,-117.0222 356.9891,-108.1628 346.922,-111.4651 351.1786,-117.0222"/>
</g>
<!-- 3&#45;&gt;8 -->
<g id="edge22" class="edge">
<title>3&#45;&gt;8</title>
<path fill="none" stroke="#c0c0c0" stroke-width="2" d="M289.1445,-143.9212C292.8966,-123.3932 302.0719,-90.376 323.7017,-72 352.8968,-47.1967 461.05,-30.095 519.1741,-22.4782"/>
<polygon fill="#c0c0c0" stroke="#c0c0c0" stroke-width="2" points="519.9404,-25.9087 529.4147,-21.1666 519.051,-18.9654 519.9404,-25.9087"/>
</g>
<!-- 4 -->
<g id="node5" class="node">
<title>4</title>
<path fill="none" stroke="#56a9d8" stroke-width="2" d="M839.7456,-252C839.7456,-252 777.6577,-252 777.6577,-252 771.6577,-252 765.6577,-246 765.6577,-240 765.6577,-240 765.6577,-228 765.6577,-228 765.6577,-222 771.6577,-216 777.6577,-216 777.6577,-216 839.7456,-216 839.7456,-216 845.7456,-216 851.7456,-222 851.7456,-228 851.7456,-228 851.7456,-240 851.7456,-240 851.7456,-246 845.7456,-252 839.7456,-252"/>
<text text-anchor="middle" x="808.7017" y="-231" font-family="sans" font-size="10.00" fill="#000000">fastqc_post_PE</text>
</g>
<!-- 5 -->
<g id="node6" class="node">
<title>5</title>
<path fill="none" stroke="#59d856" stroke-width="2" d="M668.7933,-108C668.7933,-108 596.61,-108 596.61,-108 590.61,-108 584.61,-102 584.61,-96 584.61,-96 584.61,-84 584.61,-84 584.61,-78 590.61,-72 596.61,-72 596.61,-72 668.7933,-72 668.7933,-72 674.7933,-72 680.7933,-78 680.7933,-84 680.7933,-84 680.7933,-96 680.7933,-96 680.7933,-102 674.7933,-108 668.7933,-108"/>
<text text-anchor="middle" x="632.7017" y="-87" font-family="sans" font-size="10.00" fill="#000000">bamToBigWig_PE</text>
</g>
<!-- 5&#45;&gt;8 -->
<g id="edge27" class="edge">
<title>5&#45;&gt;8</title>
<path fill="none" stroke="#c0c0c0" stroke-width="2" d="M613.5237,-71.8314C604.3428,-63.1337 593.201,-52.5783 583.2241,-43.1265"/>
<polygon fill="#c0c0c0" stroke="#c0c0c0" stroke-width="2" points="585.5402,-40.4995 575.8735,-36.1628 580.726,-45.5811 585.5402,-40.4995"/>
</g>
<!-- 6&#45;&gt;8 -->
<g id="edge24" class="edge">
<title>6&#45;&gt;8</title>
<path fill="none" stroke="#c0c0c0" stroke-width="2" d="M509.5992,-71.8314C516.9294,-63.454 525.7677,-53.3531 533.7986,-44.1749"/>
<polygon fill="#c0c0c0" stroke="#c0c0c0" stroke-width="2" points="536.639,-46.2438 540.5901,-36.4133 531.3709,-41.6343 536.639,-46.2438"/>
</g>
<!-- 7&#45;&gt;8 -->
<g id="edge20" class="edge">
<title>7&#45;&gt;8</title>
<path fill="none" stroke="#c0c0c0" stroke-width="2" d="M425.1139,-71.8314C454.5369,-59.7947 492.6573,-44.2 520.2887,-32.8962"/>
<polygon fill="#c0c0c0" stroke="#c0c0c0" stroke-width="2" points="521.6631,-36.1156 529.5934,-29.0898 519.0127,-29.6367 521.6631,-36.1156"/>
</g>
<!-- 9 -->
<g id="node10" class="node">
<title>9</title>
<path fill="none" stroke="#88d856" stroke-width="2" d="M793.5338,-108C793.5338,-108 723.8695,-108 723.8695,-108 717.8695,-108 711.8695,-102 711.8695,-96 711.8695,-96 711.8695,-84 711.8695,-84 711.8695,-78 717.8695,-72 723.8695,-72 723.8695,-72 793.5338,-72 793.5338,-72 799.5338,-72 805.5338,-78 805.5338,-84 805.5338,-84 805.5338,-96 805.5338,-96 805.5338,-102 799.5338,-108 793.5338,-108"/>
<text text-anchor="middle" x="758.7017" y="-87" font-family="sans" font-size="10.00" fill="#000000">quantification_PE</text>
</g>
<!-- 9&#45;&gt;8 -->
<g id="edge21" class="edge">
<title>9&#45;&gt;8</title>
<path fill="none" stroke="#c0c0c0" stroke-width="2" d="M711.8511,-73.3008C675.8339,-60.463 626.7733,-42.976 593.5359,-31.1291"/>
<polygon fill="#c0c0c0" stroke="#c0c0c0" stroke-width="2" points="594.3555,-27.7055 583.7608,-27.6449 592.0052,-34.2992 594.3555,-27.7055"/>
</g>
<!-- 10 -->
<g id="node11" class="node">
<title>10</title>
<path fill="none" stroke="#d8ac56" stroke-width="2" d="M950.0387,-180C950.0387,-180 855.3646,-180 855.3646,-180 849.3646,-180 843.3646,-174 843.3646,-168 843.3646,-168 843.3646,-156 843.3646,-156 843.3646,-150 849.3646,-144 855.3646,-144 855.3646,-144 950.0387,-144 950.0387,-144 956.0387,-144 962.0387,-150 962.0387,-156 962.0387,-156 962.0387,-168 962.0387,-168 962.0387,-174 956.0387,-180 950.0387,-180"/>
<text text-anchor="middle" x="902.7017" y="-159" font-family="sans" font-size="10.00" fill="#000000">remove_duplicates_PE</text>
</g>
<!-- 10&#45;&gt;1 -->
<g id="edge4" class="edge">
<title>10&#45;&gt;1</title>
<path fill="none" stroke="#c0c0c0" stroke-width="2" d="M912.0383,-143.8314C916.1259,-135.8771 921.012,-126.369 925.5326,-117.5723"/>
<polygon fill="#c0c0c0" stroke="#c0c0c0" stroke-width="2" points="928.7816,-118.9074 930.2393,-108.4133 922.5555,-115.7078 928.7816,-118.9074"/>
</g>
<!-- 10&#45;&gt;5 -->
<g id="edge9" class="edge">
<title>10&#45;&gt;5</title>
<path fill="none" stroke="#c0c0c0" stroke-width="2" d="M843.1148,-146.1102C797.7801,-134.0209 735.7399,-117.4769 690.7813,-105.4879"/>
<polygon fill="#c0c0c0" stroke="#c0c0c0" stroke-width="2" points="691.4525,-102.0447 680.8883,-102.8498 689.6488,-108.8083 691.4525,-102.0447"/>
</g>
<!-- 10&#45;&gt;8 -->
<g id="edge26" class="edge">
<title>10&#45;&gt;8</title>
<path fill="none" stroke="#c0c0c0" stroke-width="2" d="M890.0673,-143.6634C874.7325,-122.8933 846.8942,-89.6487 814.7017,-72 777.053,-51.3601 655.9808,-31.9652 594.0092,-23.0793"/>
<polygon fill="#c0c0c0" stroke="#c0c0c0" stroke-width="2" points="594.2667,-19.581 583.8748,-21.6445 593.2853,-26.5119 594.2667,-19.581"/>
</g>
<!-- 10&#45;&gt;9 -->
<g id="edge28" class="edge">
<title>10&#45;&gt;9</title>
<path fill="none" stroke="#c0c0c0" stroke-width="2" d="M866.3644,-143.8314C847.362,-134.3302 823.9258,-122.6121 803.7764,-112.5374"/>
<polygon fill="#c0c0c0" stroke="#c0c0c0" stroke-width="2" points="805.2872,-109.3797 794.7776,-108.038 802.1567,-115.6407 805.2872,-109.3797"/>
</g>
<!-- 11 -->
<g id="node12" class="node">
<title>11</title>
<path fill="none" stroke="#56d8a9" stroke-width="2" d="M100.7456,-252C100.7456,-252 38.6577,-252 38.6577,-252 32.6577,-252 26.6577,-246 26.6577,-240 26.6577,-240 26.6577,-228 26.6577,-228 26.6577,-222 32.6577,-216 38.6577,-216 38.6577,-216 100.7456,-216 100.7456,-216 106.7456,-216 112.7456,-222 112.7456,-228 112.7456,-228 112.7456,-240 112.7456,-240 112.7456,-246 106.7456,-252 100.7456,-252"/>
<text text-anchor="middle" x="69.7017" y="-231" font-family="sans" font-size="10.00" fill="#000000">fastqc_post_SE</text>
</g>
<!-- 12 -->
<g id="node13" class="node">
<title>12</title>
<path fill="none" stroke="#d87556" stroke-width="2" d="M769.7142,-468C769.7142,-468 653.6891,-468 653.6891,-468 647.6891,-468 641.6891,-462 641.6891,-456 641.6891,-456 641.6891,-444 641.6891,-444 641.6891,-438 647.6891,-432 653.6891,-432 653.6891,-432 769.7142,-432 769.7142,-432 775.7142,-432 781.7142,-438 781.7142,-444 781.7142,-444 781.7142,-456 781.7142,-456 781.7142,-462 775.7142,-468 769.7142,-468"/>
<text text-anchor="middle" x="711.7017" y="-452" font-family="sans" font-size="10.00" fill="#000000">fastqc_pre_PE</text>
<text text-anchor="middle" x="711.7017" y="-442" font-family="sans" font-size="10.00" fill="#000000">sample: Paired&#45;end_sample</text>
</g>
<!-- 21 -->
<g id="node22" class="node">
<title>21</title>
<path fill="none" stroke="#56c1d8" stroke-width="2" d="M739.5619,-396C739.5619,-396 683.8415,-396 683.8415,-396 677.8415,-396 671.8415,-390 671.8415,-384 671.8415,-384 671.8415,-372 671.8415,-372 671.8415,-366 677.8415,-360 683.8415,-360 683.8415,-360 739.5619,-360 739.5619,-360 745.5619,-360 751.5619,-366 751.5619,-372 751.5619,-372 751.5619,-384 751.5619,-384 751.5619,-390 745.5619,-396 739.5619,-396"/>
<text text-anchor="middle" x="711.7017" y="-375" font-family="sans" font-size="10.00" fill="#000000">trimgalore_PE</text>
</g>
<!-- 12&#45;&gt;21 -->
<g id="edge46" class="edge">
<title>12&#45;&gt;21</title>
<path fill="none" stroke="#c0c0c0" stroke-width="2" d="M711.7017,-431.8314C711.7017,-424.131 711.7017,-414.9743 711.7017,-406.4166"/>
<polygon fill="#c0c0c0" stroke="#c0c0c0" stroke-width="2" points="715.2018,-406.4132 711.7017,-396.4133 708.2018,-406.4133 715.2018,-406.4132"/>
</g>
<!-- 13 -->
<g id="node14" class="node">
<title>13</title>
<path fill="none" stroke="#ced856" stroke-width="2" d="M342.7887,-252C342.7887,-252 290.6146,-252 290.6146,-252 284.6146,-252 278.6146,-246 278.6146,-240 278.6146,-240 278.6146,-228 278.6146,-228 278.6146,-222 284.6146,-216 290.6146,-216 290.6146,-216 342.7887,-216 342.7887,-216 348.7887,-216 354.7887,-222 354.7887,-228 354.7887,-228 354.7887,-240 354.7887,-240 354.7887,-246 348.7887,-252 342.7887,-252"/>
<text text-anchor="middle" x="316.7017" y="-231" font-family="sans" font-size="10.00" fill="#000000">map_star_SE</text>
</g>
<!-- 13&#45;&gt;0 -->
<g id="edge1" class="edge">
<title>13&#45;&gt;0</title>
<path fill="none" stroke="#c0c0c0" stroke-width="2" d="M278.2724,-223.3823C256.7358,-215.2579 231.6668,-201.6714 218.7017,-180 207.7195,-161.6432 208.1967,-137.1832 211.0179,-118.3964"/>
<polygon fill="#c0c0c0" stroke="#c0c0c0" stroke-width="2" points="214.4995,-118.8108 212.8245,-108.3492 207.61,-117.572 214.4995,-118.8108"/>
</g>
<!-- 13&#45;&gt;3 -->
<g id="edge7" class="edge">
<title>13&#45;&gt;3</title>
<path fill="none" stroke="#c0c0c0" stroke-width="2" d="M309.1314,-215.8314C305.8524,-207.9617 301.9396,-198.5712 298.3072,-189.8533"/>
<polygon fill="#c0c0c0" stroke="#c0c0c0" stroke-width="2" points="301.4508,-188.2979 294.3739,-180.4133 294.9893,-190.9902 301.4508,-188.2979"/>
</g>
<!-- 13&#45;&gt;6 -->
<g id="edge12" class="edge">
<title>13&#45;&gt;6</title>
<path fill="none" stroke="#c0c0c0" stroke-width="2" d="M339.1188,-215.7623C370.6387,-190.119 428.1413,-143.3372 463.432,-114.6262"/>
<polygon fill="#c0c0c0" stroke="#c0c0c0" stroke-width="2" points="465.9182,-117.1155 471.4665,-108.0896 461.5005,-111.6855 465.9182,-117.1155"/>
</g>
<!-- 13&#45;&gt;7 -->
<g id="edge17" class="edge">
<title>13&#45;&gt;7</title>
<path fill="none" stroke="#c0c0c0" stroke-width="2" d="M331.6888,-215.9576C339.4467,-205.8868 348.5543,-192.8169 354.7017,-180 364.1678,-160.2637 370.8668,-136.4043 375.0919,-118.2119"/>
<polygon fill="#c0c0c0" stroke="#c0c0c0" stroke-width="2" points="378.5576,-118.7487 377.2959,-108.2293 371.7222,-117.2395 378.5576,-118.7487"/>
</g>
<!-- 14 -->
<g id="node15" class="node">
<title>14</title>
<path fill="none" stroke="#567bd8" stroke-width="2" d="M641.4403,-396C641.4403,-396 567.963,-396 567.963,-396 561.963,-396 555.963,-390 555.963,-384 555.963,-384 555.963,-372 555.963,-372 555.963,-366 561.963,-360 567.963,-360 567.963,-360 641.4403,-360 641.4403,-360 647.4403,-360 653.4403,-366 653.4403,-372 653.4403,-372 653.4403,-384 653.4403,-384 653.4403,-390 647.4403,-396 641.4403,-396"/>
<text text-anchor="middle" x="604.7017" y="-375" font-family="sans" font-size="10.00" fill="#000000">gunzip_annotation</text>
</g>
<!-- 14&#45;&gt;0 -->
<g id="edge2" class="edge">
<title>14&#45;&gt;0</title>
<path fill="none" stroke="#c0c0c0" stroke-width="2" d="M555.9491,-361.1243C469.0571,-330.8325 294.1892,-268.8231 269.7017,-252 234.4126,-227.7561 220.9171,-220.0197 205.7017,-180 198.127,-160.0771 201.9017,-136.0921 207.1498,-117.8941"/>
<polygon fill="#c0c0c0" stroke="#c0c0c0" stroke-width="2" points="210.5429,-118.7735 210.2445,-108.1828 203.8734,-116.648 210.5429,-118.7735"/>
</g>
<!-- 14&#45;&gt;1 -->
<g id="edge5" class="edge">
<title>14&#45;&gt;1</title>
<path fill="none" stroke="#c0c0c0" stroke-width="2" d="M653.6581,-362.4585C656.7101,-361.5977 659.7428,-360.7707 662.7017,-360 737.4392,-340.5337 764.1501,-359.5714 832.7017,-324 916.1644,-280.6911 950.1268,-266.1963 987.7017,-180 994.0953,-165.333 993.3877,-158.9555 987.7017,-144 983.6744,-133.4076 976.5117,-123.5662 968.928,-115.2649"/>
<polygon fill="#c0c0c0" stroke="#c0c0c0" stroke-width="2" points="971.4154,-112.8025 961.9229,-108.0968 966.4091,-117.695 971.4154,-112.8025"/>
</g>
<!-- 14&#45;&gt;6 -->
<g id="edge14" class="edge">
<title>14&#45;&gt;6</title>
<path fill="none" stroke="#c0c0c0" stroke-width="2" d="M555.7649,-362.6477C537.2343,-354.2609 517.9213,-341.8427 506.7017,-324 466.3137,-259.7708 477.8666,-164.9546 487.1206,-118.191"/>
<polygon fill="#c0c0c0" stroke="#c0c0c0" stroke-width="2" points="490.5941,-118.6797 489.2157,-108.1749 483.7424,-117.2465 490.5941,-118.6797"/>
</g>
<!-- 14&#45;&gt;9 -->
<g id="edge29" class="edge">
<title>14&#45;&gt;9</title>
<path fill="none" stroke="#c0c0c0" stroke-width="2" d="M653.7369,-362.7378C656.7693,-361.8077 659.7763,-360.8891 662.7017,-360 758.6098,-330.8515 820.7938,-343.953 860.7017,-252 867.0717,-237.3227 866.0414,-231.0827 860.7017,-216 858.6093,-210.0899 809.9992,-151.3466 780.6515,-116.1934"/>
<polygon fill="#c0c0c0" stroke="#c0c0c0" stroke-width="2" points="783.0969,-113.6615 773.9984,-108.233 777.7258,-118.1506 783.0969,-113.6615"/>
</g>
<!-- 17 -->
<g id="node18" class="node">
<title>17</title>
<path fill="none" stroke="#56d0d8" stroke-width="2" d="M565.8395,-324C565.8395,-324 527.5638,-324 527.5638,-324 521.5638,-324 515.5638,-318 515.5638,-312 515.5638,-312 515.5638,-300 515.5638,-300 515.5638,-294 521.5638,-288 527.5638,-288 527.5638,-288 565.8395,-288 565.8395,-288 571.8395,-288 577.8395,-294 577.8395,-300 577.8395,-300 577.8395,-312 577.8395,-312 577.8395,-318 571.8395,-324 565.8395,-324"/>
<text text-anchor="middle" x="546.7017" y="-303" font-family="sans" font-size="10.00" fill="#000000">index_star</text>
</g>
<!-- 14&#45;&gt;17 -->
<g id="edge42" class="edge">
<title>14&#45;&gt;17</title>
<path fill="none" stroke="#c0c0c0" stroke-width="2" d="M590.0658,-359.8314C583.3855,-351.5386 575.3448,-341.557 568.0113,-332.4533"/>
<polygon fill="#c0c0c0" stroke="#c0c0c0" stroke-width="2" points="570.5335,-330.0052 561.5346,-324.4133 565.0823,-334.3965 570.5335,-330.0052"/>
</g>
<!-- 18 -->
<g id="node19" class="node">
<title>18</title>
<path fill="none" stroke="#bed856" stroke-width="2" d="M661.8917,-180C661.8917,-180 603.5116,-180 603.5116,-180 597.5116,-180 591.5116,-174 591.5116,-168 591.5116,-168 591.5116,-156 591.5116,-156 591.5116,-150 597.5116,-144 603.5116,-144 603.5116,-144 661.8917,-144 661.8917,-144 667.8917,-144 673.8917,-150 673.8917,-156 673.8917,-156 673.8917,-168 673.8917,-168 673.8917,-174 667.8917,-180 661.8917,-180"/>
<text text-anchor="middle" x="632.7017" y="-159" font-family="sans" font-size="10.00" fill="#000000">create_flatGFF</text>
</g>
<!-- 14&#45;&gt;18 -->
<g id="edge43" class="edge">
<title>14&#45;&gt;18</title>
<path fill="none" stroke="#c0c0c0" stroke-width="2" d="M607.0408,-359.9555C611.9202,-322.3144 623.2145,-235.1867 629.0559,-190.1246"/>
<polygon fill="#c0c0c0" stroke="#c0c0c0" stroke-width="2" points="632.5349,-190.5121 630.3495,-180.1451 625.5929,-189.6121 632.5349,-190.5121"/>
</g>
<!-- 15 -->
<g id="node16" class="node">
<title>15</title>
<path fill="none" stroke="#9fd856" stroke-width="2" d="M735.7887,-252C735.7887,-252 683.6146,-252 683.6146,-252 677.6146,-252 671.6146,-246 671.6146,-240 671.6146,-240 671.6146,-228 671.6146,-228 671.6146,-222 677.6146,-216 683.6146,-216 683.6146,-216 735.7887,-216 735.7887,-216 741.7887,-216 747.7887,-222 747.7887,-228 747.7887,-228 747.7887,-240 747.7887,-240 747.7887,-246 741.7887,-252 735.7887,-252"/>
<text text-anchor="middle" x="709.7017" y="-231" font-family="sans" font-size="10.00" fill="#000000">map_star_PE</text>
</g>
<!-- 15&#45;&gt;1 -->
<g id="edge6" class="edge">
<title>15&#45;&gt;1</title>
<path fill="none" stroke="#c0c0c0" stroke-width="2" d="M747.9686,-218.6314C750.9016,-217.673 753.8355,-216.7815 756.7017,-216 803.2268,-203.3137 939.5589,-216.8193 970.7017,-180 986.0411,-161.8645 974.3841,-135.7232 961.2094,-116.2825"/>
<polygon fill="#c0c0c0" stroke="#c0c0c0" stroke-width="2" points="964.0285,-114.2078 955.3434,-108.1397 958.3488,-118.2994 964.0285,-114.2078"/>
</g>
<!-- 15&#45;&gt;5 -->
<g id="edge10" class="edge">
<title>15&#45;&gt;5</title>
<path fill="none" stroke="#c0c0c0" stroke-width="2" d="M706.7579,-215.7885C703.1436,-196.8904 695.8145,-166.9443 682.7017,-144 676.8771,-133.8084 668.7933,-123.9769 660.822,-115.5597"/>
<polygon fill="#c0c0c0" stroke="#c0c0c0" stroke-width="2" points="663.1212,-112.9071 653.6012,-108.2574 658.1438,-117.829 663.1212,-112.9071"/>
</g>
<!-- 15&#45;&gt;9 -->
<g id="edge32" class="edge">
<title>15&#45;&gt;9</title>
<path fill="none" stroke="#c0c0c0" stroke-width="2" d="M729.3229,-215.9291C738.4637,-206.2427 748.4594,-193.5318 753.7017,-180 761.31,-160.3608 762.3005,-136.4963 761.5286,-118.2773"/>
<polygon fill="#c0c0c0" stroke="#c0c0c0" stroke-width="2" points="765.0208,-118.0409 760.9072,-108.2773 758.0343,-118.4751 765.0208,-118.0409"/>
</g>
<!-- 15&#45;&gt;10 -->
<g id="edge33" class="edge">
<title>15&#45;&gt;10</title>
<path fill="none" stroke="#c0c0c0" stroke-width="2" d="M747.9072,-219.326C750.8815,-218.1965 753.8395,-217.0773 756.7017,-216 785.3104,-205.2315 817.1402,-193.4371 843.7598,-183.6255"/>
<polygon fill="#c0c0c0" stroke="#c0c0c0" stroke-width="2" points="845.1415,-186.8465 853.3156,-180.1059 842.7222,-180.2778 845.1415,-186.8465"/>
</g>
<!-- 16 -->
<g id="node17" class="node">
<title>16</title>
<path fill="none" stroke="#d85656" stroke-width="2" d="M762.4061,-324C762.4061,-324 658.9972,-324 658.9972,-324 652.9972,-324 646.9972,-318 646.9972,-312 646.9972,-312 646.9972,-300 646.9972,-300 646.9972,-294 652.9972,-288 658.9972,-288 658.9972,-288 762.4061,-288 762.4061,-288 768.4061,-288 774.4061,-294 774.4061,-300 774.4061,-300 774.4061,-312 774.4061,-312 774.4061,-318 768.4061,-324 762.4061,-324"/>
<text text-anchor="middle" x="710.7017" y="-303" font-family="sans" font-size="10.00" fill="#000000">remove_rRNA_tRNA_PE</text>
</g>
<!-- 16&#45;&gt;4 -->
<g id="edge8" class="edge">
<title>16&#45;&gt;4</title>
<path fill="none" stroke="#c0c0c0" stroke-width="2" d="M735.4312,-287.8314C747.6178,-278.8779 762.484,-267.9558 775.6328,-258.2955"/>
<polygon fill="#c0c0c0" stroke="#c0c0c0" stroke-width="2" points="777.9935,-260.9042 783.98,-252.1628 773.8489,-255.263 777.9935,-260.9042"/>
</g>
<!-- 16&#45;&gt;15 -->
<g id="edge38" class="edge">
<title>16&#45;&gt;15</title>
<path fill="none" stroke="#c0c0c0" stroke-width="2" d="M710.4493,-287.8314C710.3424,-280.131 710.2152,-270.9743 710.0963,-262.4166"/>
<polygon fill="#c0c0c0" stroke="#c0c0c0" stroke-width="2" points="713.596,-262.3637 709.9574,-252.4133 706.5967,-262.4609 713.596,-262.3637"/>
</g>
<!-- 17&#45;&gt;5 -->
<g id="edge11" class="edge">
<title>17&#45;&gt;5</title>
<path fill="none" stroke="#c0c0c0" stroke-width="2" d="M547.6495,-287.9363C549.9272,-256.8535 557.5545,-191.9734 582.7017,-144 588.1515,-133.6033 596.1296,-123.7138 604.1193,-115.3067"/>
<polygon fill="#c0c0c0" stroke="#c0c0c0" stroke-width="2" points="606.7966,-117.5789 611.3878,-108.0305 601.8442,-112.6318 606.7966,-117.5789"/>
</g>
<!-- 17&#45;&gt;6 -->
<g id="edge15" class="edge">
<title>17&#45;&gt;6</title>
<path fill="none" stroke="#c0c0c0" stroke-width="2" d="M542.2741,-287.9555C533.0381,-250.3144 511.6595,-163.1867 500.6026,-118.1246"/>
<polygon fill="#c0c0c0" stroke="#c0c0c0" stroke-width="2" points="503.9362,-117.0229 498.1539,-108.1451 497.1378,-118.6911 503.9362,-117.0229"/>
</g>
<!-- 17&#45;&gt;7 -->
<g id="edge19" class="edge">
<title>17&#45;&gt;7</title>
<path fill="none" stroke="#c0c0c0" stroke-width="2" d="M532.8341,-287.9555C503.479,-249.7585 434.961,-160.6025 400.803,-116.1559"/>
<polygon fill="#c0c0c0" stroke="#c0c0c0" stroke-width="2" points="403.5152,-113.9413 394.6465,-108.1451 397.9649,-118.2068 403.5152,-113.9413"/>
</g>
<!-- 17&#45;&gt;9 -->
<g id="edge30" class="edge">
<title>17&#45;&gt;9</title>
<path fill="none" stroke="#c0c0c0" stroke-width="2" d="M567.7175,-287.9654C595.0932,-264.1553 644.0209,-220.5018 682.7017,-180 702.422,-159.3513 723.2375,-134.4558 738.0881,-116.0875"/>
<polygon fill="#c0c0c0" stroke="#c0c0c0" stroke-width="2" points="740.9332,-118.1345 744.4662,-108.1461 735.4755,-113.7511 740.9332,-118.1345"/>
</g>
<!-- 17&#45;&gt;13 -->
<g id="edge35" class="edge">
<title>17&#45;&gt;13</title>
<path fill="none" stroke="#c0c0c0" stroke-width="2" d="M515.2034,-296.1397C476.3474,-283.9761 409.8977,-263.1744 364.6813,-249.0197"/>
<polygon fill="#c0c0c0" stroke="#c0c0c0" stroke-width="2" points="365.6792,-245.6647 355.0902,-246.0173 363.5879,-252.345 365.6792,-245.6647"/>
</g>
<!-- 17&#45;&gt;15 -->
<g id="edge37" class="edge">
<title>17&#45;&gt;15</title>
<path fill="none" stroke="#c0c0c0" stroke-width="2" d="M578.1297,-292.1177C601.963,-281.5901 635.1236,-266.9425 662.1908,-254.9864"/>
<polygon fill="#c0c0c0" stroke="#c0c0c0" stroke-width="2" points="663.7523,-258.123 671.4854,-250.8808 660.9238,-251.7198 663.7523,-258.123"/>
</g>
<!-- 18&#45;&gt;6 -->
<g id="edge16" class="edge">
<title>18&#45;&gt;6</title>
<path fill="none" stroke="#c0c0c0" stroke-width="2" d="M597.6261,-143.8314C579.4356,-134.4089 557.0359,-122.8062 537.6957,-112.7883"/>
<polygon fill="#c0c0c0" stroke="#c0c0c0" stroke-width="2" points="539.2553,-109.6545 528.766,-108.1628 536.0357,-115.8701 539.2553,-109.6545"/>
</g>
<!-- 18&#45;&gt;9 -->
<g id="edge31" class="edge">
<title>18&#45;&gt;9</title>
<path fill="none" stroke="#c0c0c0" stroke-width="2" d="M664.4968,-143.8314C680.7622,-134.5368 700.7402,-123.1208 718.1067,-113.1971"/>
<polygon fill="#c0c0c0" stroke="#c0c0c0" stroke-width="2" points="719.9708,-116.1631 726.9167,-108.1628 716.4978,-110.0854 719.9708,-116.1631"/>
</g>
<!-- 19 -->
<g id="node20" class="node">
<title>19</title>
<path fill="none" stroke="#56d87b" stroke-width="2" d="M121.4061,-324C121.4061,-324 17.9972,-324 17.9972,-324 11.9972,-324 5.9972,-318 5.9972,-312 5.9972,-312 5.9972,-300 5.9972,-300 5.9972,-294 11.9972,-288 17.9972,-288 17.9972,-288 121.4061,-288 121.4061,-288 127.4061,-288 133.4061,-294 133.4061,-300 133.4061,-300 133.4061,-312 133.4061,-312 133.4061,-318 127.4061,-324 121.4061,-324"/>
<text text-anchor="middle" x="69.7017" y="-303" font-family="sans" font-size="10.00" fill="#000000">remove_rRNA_tRNA_SE</text>
</g>
<!-- 19&#45;&gt;11 -->
<g id="edge34" class="edge">
<title>19&#45;&gt;11</title>
<path fill="none" stroke="#c0c0c0" stroke-width="2" d="M69.7017,-287.8314C69.7017,-280.131 69.7017,-270.9743 69.7017,-262.4166"/>
<polygon fill="#c0c0c0" stroke="#c0c0c0" stroke-width="2" points="73.2018,-262.4132 69.7017,-252.4133 66.2018,-262.4133 73.2018,-262.4132"/>
</g>
<!-- 19&#45;&gt;13 -->
<g id="edge36" class="edge">
<title>19&#45;&gt;13</title>
<path fill="none" stroke="#c0c0c0" stroke-width="2" d="M131.7114,-287.9243C174.0826,-275.5732 229.4184,-259.4429 268.493,-248.0527"/>
<polygon fill="#c0c0c0" stroke="#c0c0c0" stroke-width="2" points="269.937,-251.2775 278.558,-245.1188 267.978,-244.5572 269.937,-251.2775"/>
</g>
<!-- 20 -->
<g id="node21" class="node">
<title>20</title>
<path fill="none" stroke="#56d86b" stroke-width="2" stroke-dasharray="5,2" d="M318.5666,-396C318.5666,-396 242.8367,-396 242.8367,-396 236.8367,-396 230.8367,-390 230.8367,-384 230.8367,-384 230.8367,-372 230.8367,-372 230.8367,-366 236.8367,-360 242.8367,-360 242.8367,-360 318.5666,-360 318.5666,-360 324.5666,-360 330.5666,-366 330.5666,-372 330.5666,-372 330.5666,-384 330.5666,-384 330.5666,-390 324.5666,-396 318.5666,-396"/>
<text text-anchor="middle" x="280.7017" y="-375" font-family="sans" font-size="10.00" fill="#000000">index_rRNA_tRNA</text>
</g>
<!-- 20&#45;&gt;16 -->
<g id="edge39" class="edge">
<title>20&#45;&gt;16</title>
<path fill="none" stroke="#c0c0c0" stroke-width="2" d="M330.4482,-369.6703C405.8038,-357.0527 549.36,-333.0153 636.9087,-318.356"/>
<polygon fill="#c0c0c0" stroke="#c0c0c0" stroke-width="2" points="637.4897,-321.8076 646.7743,-316.7041 636.3336,-314.9037 637.4897,-321.8076"/>
</g>
<!-- 20&#45;&gt;19 -->
<g id="edge44" class="edge">
<title>20&#45;&gt;19</title>
<path fill="none" stroke="#c0c0c0" stroke-width="2" d="M230.9648,-361.0282C201.4839,-350.9684 163.8506,-338.1266 132.3548,-327.3793"/>
<polygon fill="#c0c0c0" stroke="#c0c0c0" stroke-width="2" points="133.3877,-324.0336 122.7932,-324.1165 131.127,-330.6585 133.3877,-324.0336"/>
</g>
<!-- 21&#45;&gt;16 -->
<g id="edge40" class="edge">
<title>21&#45;&gt;16</title>
<path fill="none" stroke="#c0c0c0" stroke-width="2" d="M711.4493,-359.8314C711.3424,-352.131 711.2152,-342.9743 711.0963,-334.4166"/>
<polygon fill="#c0c0c0" stroke="#c0c0c0" stroke-width="2" points="714.596,-334.3637 710.9574,-324.4133 707.5967,-334.4609 714.596,-334.3637"/>
</g>
<!-- 22 -->
<g id="node23" class="node">
<title>22</title>
<path fill="none" stroke="#d88d56" stroke-width="2" d="M526.3688,-396C526.3688,-396 463.0345,-396 463.0345,-396 457.0345,-396 451.0345,-390 451.0345,-384 451.0345,-384 451.0345,-372 451.0345,-372 451.0345,-366 457.0345,-360 463.0345,-360 463.0345,-360 526.3688,-360 526.3688,-360 532.3688,-360 538.3688,-366 538.3688,-372 538.3688,-372 538.3688,-384 538.3688,-384 538.3688,-390 532.3688,-396 526.3688,-396"/>
<text text-anchor="middle" x="494.7017" y="-375" font-family="sans" font-size="10.00" fill="#000000">gunzip_genome</text>
</g>
<!-- 22&#45;&gt;17 -->
<g id="edge41" class="edge">
<title>22&#45;&gt;17</title>
<path fill="none" stroke="#c0c0c0" stroke-width="2" d="M507.8235,-359.8314C513.7515,-351.6232 520.8746,-341.7606 527.395,-332.7323"/>
<polygon fill="#c0c0c0" stroke="#c0c0c0" stroke-width="2" points="530.3856,-334.5693 533.4032,-324.4133 524.7109,-330.4708 530.3856,-334.5693"/>
</g>
<!-- 23&#45;&gt;19 -->
<g id="edge45" class="edge">
<title>23&#45;&gt;19</title>
<path fill="none" stroke="#c0c0c0" stroke-width="2" d="M69.7017,-359.8314C69.7017,-352.131 69.7017,-342.9743 69.7017,-334.4166"/>
<polygon fill="#c0c0c0" stroke="#c0c0c0" stroke-width="2" points="73.2018,-334.4132 69.7017,-324.4133 66.2018,-334.4133 73.2018,-334.4132"/>
</g>
</g>
</svg>
