<?xml version="1.0" encoding="UTF-8" standalone="no"?>
<!DOCTYPE svg PUBLIC "-//W3C//DTD SVG 1.1//EN"
 "http://www.w3.org/Graphics/SVG/1.1/DTD/svg11.dtd">
<!-- Generated by graphviz version 2.40.1 (20161225.0304)
 -->
<!-- Title: snakemake_dag Pages: 1 -->
<svg width="523pt" height="476pt"
 viewBox="0.00 0.00 523.08 476.00" xmlns="http://www.w3.org/2000/svg" xmlns:xlink="http://www.w3.org/1999/xlink">
<g id="graph0" class="graph" transform="scale(1 1) rotate(0) translate(4 472)">
<title>snakemake_dag</title>
<polygon fill="#ffffff" stroke="transparent" points="-4,4 -4,-472 519.0767,-472 519.0767,4 -4,4"/>
<!-- 0 -->
<g id="node1" class="node">
<title>0</title>
<path fill="none" stroke="#56d89a" stroke-width="2" d="M304.6138,-36C304.6138,-36 274.6138,-36 274.6138,-36 268.6138,-36 262.6138,-30 262.6138,-24 262.6138,-24 262.6138,-12 262.6138,-12 262.6138,-6 268.6138,0 274.6138,0 274.6138,0 304.6138,0 304.6138,0 310.6138,0 316.6138,-6 316.6138,-12 316.6138,-12 316.6138,-24 316.6138,-24 316.6138,-30 310.6138,-36 304.6138,-36"/>
<text text-anchor="middle" x="289.6138" y="-15" font-family="sans" font-size="10.00" fill="#000000">report</text>
</g>
<!-- 1 -->
<g id="node2" class="node">
<title>1</title>
<path fill="none" stroke="#d86e56" stroke-width="2" d="M183.5396,-108C183.5396,-108 117.688,-108 117.688,-108 111.688,-108 105.688,-102 105.688,-96 105.688,-96 105.688,-84 105.688,-84 105.688,-78 111.688,-72 117.688,-72 117.688,-72 183.5396,-72 183.5396,-72 189.5396,-72 195.5396,-78 195.5396,-84 195.5396,-84 195.5396,-96 195.5396,-96 195.5396,-102 189.5396,-108 183.5396,-108"/>
<text text-anchor="middle" x="150.6138" y="-87" font-family="sans" font-size="10.00" fill="#000000">wigToBigWig_pe</text>
</g>
<!-- 1&#45;&gt;0 -->
<g id="edge1" class="edge">
<title>1&#45;&gt;0</title>
<path fill="none" stroke="#c0c0c0" stroke-width="2" d="M185.6893,-71.8314C206.4264,-61.0898 232.6338,-47.5148 253.5425,-36.6844"/>
<polygon fill="#c0c0c0" stroke="#c0c0c0" stroke-width="2" points="255.1722,-39.782 262.4419,-32.0747 251.9525,-33.5663 255.1722,-39.782"/>
</g>
<!-- 2 -->
<g id="node3" class="node">
<title>2</title>
<path fill="none" stroke="#56c1d8" stroke-width="2" d="M354.2516,-108C354.2516,-108 310.9759,-108 310.9759,-108 304.9759,-108 298.9759,-102 298.9759,-96 298.9759,-96 298.9759,-84 298.9759,-84 298.9759,-78 304.9759,-72 310.9759,-72 310.9759,-72 354.2516,-72 354.2516,-72 360.2516,-72 366.2516,-78 366.2516,-84 366.2516,-84 366.2516,-96 366.2516,-96 366.2516,-102 360.2516,-108 354.2516,-108"/>
<text text-anchor="middle" x="332.6138" y="-87" font-family="sans" font-size="10.00" fill="#000000">stringtie_se</text>
</g>
<!-- 2&#45;&gt;0 -->
<g id="edge2" class="edge">
<title>2&#45;&gt;0</title>
<path fill="none" stroke="#c0c0c0" stroke-width="2" d="M321.7631,-71.8314C316.9115,-63.7079 311.0921,-53.9637 305.7458,-45.0118"/>
<polygon fill="#c0c0c0" stroke="#c0c0c0" stroke-width="2" points="308.7429,-43.2041 300.6106,-36.4133 302.7331,-46.7933 308.7429,-43.2041"/>
</g>
<!-- 3 -->
<g id="node4" class="node">
<title>3</title>
<path fill="none" stroke="#5682d8" stroke-width="2" d="M461.4788,-108C461.4788,-108 395.7488,-108 395.7488,-108 389.7488,-108 383.7488,-102 383.7488,-96 383.7488,-96 383.7488,-84 383.7488,-84 383.7488,-78 389.7488,-72 395.7488,-72 395.7488,-72 461.4788,-72 461.4788,-72 467.4788,-72 473.4788,-78 473.4788,-84 473.4788,-84 473.4788,-96 473.4788,-96 473.4788,-102 467.4788,-108 461.4788,-108"/>
<text text-anchor="middle" x="428.6138" y="-87" font-family="sans" font-size="10.00" fill="#000000">wigToBigWig_se</text>
</g>
<!-- 3&#45;&gt;0 -->
<g id="edge3" class="edge">
<title>3&#45;&gt;0</title>
<path fill="none" stroke="#c0c0c0" stroke-width="2" d="M393.5382,-71.8314C372.8011,-61.0898 346.5938,-47.5148 325.685,-36.6844"/>
<polygon fill="#c0c0c0" stroke="#c0c0c0" stroke-width="2" points="327.275,-33.5663 316.7857,-32.0747 324.0554,-39.782 327.275,-33.5663"/>
</g>
<!-- 4 -->
<g id="node5" class="node">
<title>4</title>
<path fill="none" stroke="#56d8c1" stroke-width="2" d="M269.3137,-108C269.3137,-108 225.9139,-108 225.9139,-108 219.9139,-108 213.9139,-102 213.9139,-96 213.9139,-96 213.9139,-84 213.9139,-84 213.9139,-78 219.9139,-72 225.9139,-72 225.9139,-72 269.3137,-72 269.3137,-72 275.3137,-72 281.3137,-78 281.3137,-84 281.3137,-84 281.3137,-96 281.3137,-96 281.3137,-102 275.3137,-108 269.3137,-108"/>
<text text-anchor="middle" x="247.6138" y="-87" font-family="sans" font-size="10.00" fill="#000000">stringtie_pe</text>
</g>
<!-- 4&#45;&gt;0 -->
<g id="edge4" class="edge">
<title>4&#45;&gt;0</title>
<path fill="none" stroke="#c0c0c0" stroke-width="2" d="M258.2121,-71.8314C262.9015,-63.7925 268.5166,-54.1666 273.6936,-45.2918"/>
<polygon fill="#c0c0c0" stroke="#c0c0c0" stroke-width="2" points="276.8572,-46.8146 278.8727,-36.4133 270.8107,-43.2875 276.8572,-46.8146"/>
</g>
<!-- 5 -->
<g id="node6" class="node">
<title>5</title>
<path fill="none" stroke="#80d856" stroke-width="2" d="M184.9838,-180C184.9838,-180 134.2437,-180 134.2437,-180 128.2437,-180 122.2437,-174 122.2437,-168 122.2437,-168 122.2437,-156 122.2437,-156 122.2437,-150 128.2437,-144 134.2437,-144 134.2437,-144 184.9838,-144 184.9838,-144 190.9838,-144 196.9838,-150 196.9838,-156 196.9838,-156 196.9838,-168 196.9838,-168 196.9838,-174 190.9838,-180 184.9838,-180"/>
<text text-anchor="middle" x="159.6138" y="-159" font-family="sans" font-size="10.00" fill="#000000">map_star_pe</text>
</g>
<!-- 5&#45;&gt;1 -->
<g id="edge5" class="edge">
<title>5&#45;&gt;1</title>
<path fill="none" stroke="#c0c0c0" stroke-width="2" d="M157.3427,-143.8314C156.3801,-136.131 155.2356,-126.9743 154.1658,-118.4166"/>
<polygon fill="#c0c0c0" stroke="#c0c0c0" stroke-width="2" points="157.6288,-117.9019 152.9154,-108.4133 150.6829,-118.7702 157.6288,-117.9019"/>
</g>
<!-- 5&#45;&gt;4 -->
<g id="edge10" class="edge">
<title>5&#45;&gt;4</title>
<path fill="none" stroke="#c0c0c0" stroke-width="2" d="M181.8199,-143.8314C192.6587,-134.9632 205.8581,-124.1637 217.5815,-114.5718"/>
<polygon fill="#c0c0c0" stroke="#c0c0c0" stroke-width="2" points="219.8915,-117.2041 225.4148,-108.1628 215.4588,-111.7864 219.8915,-117.2041"/>
</g>
<!-- 6 -->
<g id="node7" class="node">
<title>6</title>
<path fill="none" stroke="#afd856" stroke-width="2" d="M418.4216,-180C418.4216,-180 368.8059,-180 368.8059,-180 362.8059,-180 356.8059,-174 356.8059,-168 356.8059,-168 356.8059,-156 356.8059,-156 356.8059,-150 362.8059,-144 368.8059,-144 368.8059,-144 418.4216,-144 418.4216,-144 424.4216,-144 430.4216,-150 430.4216,-156 430.4216,-156 430.4216,-168 430.4216,-168 430.4216,-174 424.4216,-180 418.4216,-180"/>
<text text-anchor="middle" x="393.6138" y="-159" font-family="sans" font-size="10.00" fill="#000000">map_star_se</text>
</g>
<!-- 6&#45;&gt;2 -->
<g id="edge6" class="edge">
<title>6&#45;&gt;2</title>
<path fill="none" stroke="#c0c0c0" stroke-width="2" d="M378.2209,-143.8314C371.1234,-135.454 362.5657,-125.3531 354.7898,-116.1749"/>
<polygon fill="#c0c0c0" stroke="#c0c0c0" stroke-width="2" points="357.3486,-113.7807 348.2139,-108.4133 352.0077,-118.3056 357.3486,-113.7807"/>
</g>
<!-- 6&#45;&gt;3 -->
<g id="edge8" class="edge">
<title>6&#45;&gt;3</title>
<path fill="none" stroke="#c0c0c0" stroke-width="2" d="M402.4457,-143.8314C406.3124,-135.8771 410.9344,-126.369 415.2106,-117.5723"/>
<polygon fill="#c0c0c0" stroke="#c0c0c0" stroke-width="2" points="418.4387,-118.9371 419.6629,-108.4133 412.1431,-115.8768 418.4387,-118.9371"/>
</g>
<!-- 7 -->
<g id="node8" class="node">
<title>7</title>
<path fill="none" stroke="#d88556" stroke-width="2" d="M360.3524,-324C360.3524,-324 286.8751,-324 286.8751,-324 280.8751,-324 274.8751,-318 274.8751,-312 274.8751,-312 274.8751,-300 274.8751,-300 274.8751,-294 280.8751,-288 286.8751,-288 286.8751,-288 360.3524,-288 360.3524,-288 366.3524,-288 372.3524,-294 372.3524,-300 372.3524,-300 372.3524,-312 372.3524,-312 372.3524,-318 366.3524,-324 360.3524,-324"/>
<text text-anchor="middle" x="323.6138" y="-303" font-family="sans" font-size="10.00" fill="#000000">gunzip_annotation</text>
</g>
<!-- 7&#45;&gt;2 -->
<g id="edge7" class="edge">
<title>7&#45;&gt;2</title>
<path fill="none" stroke="#c0c0c0" stroke-width="2" d="M324.3656,-287.9555C325.9307,-250.3938 329.549,-163.5541 331.43,-118.4103"/>
<polygon fill="#c0c0c0" stroke="#c0c0c0" stroke-width="2" points="334.9383,-118.2821 331.8577,-108.1451 327.9444,-117.9907 334.9383,-118.2821"/>
</g>
<!-- 7&#45;&gt;4 -->
<g id="edge9" class="edge">
<title>7&#45;&gt;4</title>
<path fill="none" stroke="#c0c0c0" stroke-width="2" d="M317.2648,-287.9555C303.9927,-250.235 273.2352,-162.8188 257.4093,-117.8399"/>
<polygon fill="#c0c0c0" stroke="#c0c0c0" stroke-width="2" points="260.6189,-116.4165 253.9981,-108.1451 254.0157,-118.7399 260.6189,-116.4165"/>
</g>
<!-- 10 -->
<g id="node11" class="node">
<title>10</title>
<path fill="none" stroke="#56d8d8" stroke-width="2" d="M241.7516,-252C241.7516,-252 203.4759,-252 203.4759,-252 197.4759,-252 191.4759,-246 191.4759,-240 191.4759,-240 191.4759,-228 191.4759,-228 191.4759,-222 197.4759,-216 203.4759,-216 203.4759,-216 241.7516,-216 241.7516,-216 247.7516,-216 253.7516,-222 253.7516,-228 253.7516,-228 253.7516,-240 253.7516,-240 253.7516,-246 247.7516,-252 241.7516,-252"/>
<text text-anchor="middle" x="222.6138" y="-231" font-family="sans" font-size="10.00" fill="#000000">index_star</text>
</g>
<!-- 7&#45;&gt;10 -->
<g id="edge21" class="edge">
<title>7&#45;&gt;10</title>
<path fill="none" stroke="#c0c0c0" stroke-width="2" d="M298.1272,-287.8314C285.4479,-278.7927 269.9542,-267.7476 256.3082,-258.0198"/>
<polygon fill="#c0c0c0" stroke="#c0c0c0" stroke-width="2" points="258.2667,-255.1176 248.0922,-252.1628 254.2033,-260.8176 258.2667,-255.1176"/>
</g>
<!-- 8 -->
<g id="node9" class="node">
<title>8</title>
<path fill="none" stroke="#c6d856" stroke-width="2" d="M119.4411,-252C119.4411,-252 59.7864,-252 59.7864,-252 53.7864,-252 47.7864,-246 47.7864,-240 47.7864,-240 47.7864,-228 47.7864,-228 47.7864,-222 53.7864,-216 59.7864,-216 59.7864,-216 119.4411,-216 119.4411,-216 125.4411,-216 131.4411,-222 131.4411,-228 131.4411,-228 131.4411,-240 131.4411,-240 131.4411,-246 125.4411,-252 119.4411,-252"/>
<text text-anchor="middle" x="89.6138" y="-231" font-family="sans" font-size="10.00" fill="#000000">fastqc_pe_post</text>
</g>
<!-- 8&#45;&gt;5 -->
<g id="edge11" class="edge">
<title>8&#45;&gt;5</title>
<path fill="none" stroke="#c0c0c0" stroke-width="2" d="M107.2777,-215.8314C115.5869,-207.2848 125.6401,-196.9443 134.7056,-187.6198"/>
<polygon fill="#c0c0c0" stroke="#c0c0c0" stroke-width="2" points="137.2507,-190.023 141.712,-180.4133 132.2317,-185.1435 137.2507,-190.023"/>
</g>
<!-- 9 -->
<g id="node10" class="node">
<title>9</title>
<path fill="none" stroke="#569ad8" stroke-width="2" d="M140.602,-324C140.602,-324 38.6255,-324 38.6255,-324 32.6255,-324 26.6255,-318 26.6255,-312 26.6255,-312 26.6255,-300 26.6255,-300 26.6255,-294 32.6255,-288 38.6255,-288 38.6255,-288 140.602,-288 140.602,-288 146.602,-288 152.602,-294 152.602,-300 152.602,-300 152.602,-312 152.602,-312 152.602,-318 146.602,-324 140.602,-324"/>
<text text-anchor="middle" x="89.6138" y="-303" font-family="sans" font-size="10.00" fill="#000000">remove_rRNA_tRNA_pe</text>
</g>
<!-- 9&#45;&gt;5 -->
<g id="edge12" class="edge">
<title>9&#45;&gt;5</title>
<path fill="none" stroke="#c0c0c0" stroke-width="2" d="M111.682,-287.8366C121.9737,-278.218 133.4944,-265.5939 140.6138,-252 150.6471,-232.8423 155.3822,-208.7682 157.6168,-190.3402"/>
<polygon fill="#c0c0c0" stroke="#c0c0c0" stroke-width="2" points="161.1158,-190.5297 158.6647,-180.2223 154.153,-189.8085 161.1158,-190.5297"/>
</g>
<!-- 9&#45;&gt;8 -->
<g id="edge17" class="edge">
<title>9&#45;&gt;8</title>
<path fill="none" stroke="#c0c0c0" stroke-width="2" d="M89.6138,-287.8314C89.6138,-280.131 89.6138,-270.9743 89.6138,-262.4166"/>
<polygon fill="#c0c0c0" stroke="#c0c0c0" stroke-width="2" points="93.1139,-262.4132 89.6138,-252.4133 86.1139,-262.4133 93.1139,-262.4132"/>
</g>
<!-- 10&#45;&gt;5 -->
<g id="edge13" class="edge">
<title>10&#45;&gt;5</title>
<path fill="none" stroke="#c0c0c0" stroke-width="2" d="M206.7162,-215.8314C199.386,-207.454 190.5478,-197.3531 182.5168,-188.1749"/>
<polygon fill="#c0c0c0" stroke="#c0c0c0" stroke-width="2" points="184.9445,-185.6343 175.7254,-180.4133 179.6764,-190.2438 184.9445,-185.6343"/>
</g>
<!-- 10&#45;&gt;6 -->
<g id="edge14" class="edge">
<title>10&#45;&gt;6</title>
<path fill="none" stroke="#c0c0c0" stroke-width="2" d="M253.9778,-220.7941C280.1656,-209.7677 317.8639,-193.8947 347.4912,-181.42"/>
<polygon fill="#c0c0c0" stroke="#c0c0c0" stroke-width="2" points="348.9438,-184.6061 356.802,-177.4997 346.2274,-178.1546 348.9438,-184.6061"/>
</g>
<!-- 11 -->
<g id="node12" class="node">
<title>11</title>
<path fill="none" stroke="#56d8a9" stroke-width="2" d="M503.0396,-324C503.0396,-324 402.188,-324 402.188,-324 396.188,-324 390.188,-318 390.188,-312 390.188,-312 390.188,-300 390.188,-300 390.188,-294 396.188,-288 402.188,-288 402.188,-288 503.0396,-288 503.0396,-288 509.0396,-288 515.0396,-294 515.0396,-300 515.0396,-300 515.0396,-312 515.0396,-312 515.0396,-318 509.0396,-324 503.0396,-324"/>
<text text-anchor="middle" x="452.6138" y="-303" font-family="sans" font-size="10.00" fill="#000000">remove_rRNA_tRNA_se</text>
</g>
<!-- 11&#45;&gt;6 -->
<g id="edge15" class="edge">
<title>11&#45;&gt;6</title>
<path fill="none" stroke="#c0c0c0" stroke-width="2" d="M454.3871,-287.8819C455.4738,-269.0599 455.0396,-239.1752 444.6138,-216 439.8342,-205.3756 432.0764,-195.5247 424.0378,-187.2246"/>
<polygon fill="#c0c0c0" stroke="#c0c0c0" stroke-width="2" points="426.2681,-184.5118 416.6538,-180.0603 421.3936,-189.5358 426.2681,-184.5118"/>
</g>
<!-- 12 -->
<g id="node13" class="node">
<title>12</title>
<path fill="none" stroke="#d8ac56" stroke-width="2" d="M423.3798,-252C423.3798,-252 363.8477,-252 363.8477,-252 357.8477,-252 351.8477,-246 351.8477,-240 351.8477,-240 351.8477,-228 351.8477,-228 351.8477,-222 357.8477,-216 363.8477,-216 363.8477,-216 423.3798,-216 423.3798,-216 429.3798,-216 435.3798,-222 435.3798,-228 435.3798,-228 435.3798,-240 435.3798,-240 435.3798,-246 429.3798,-252 423.3798,-252"/>
<text text-anchor="middle" x="393.6138" y="-231" font-family="sans" font-size="10.00" fill="#000000">fastqc_se_post</text>
</g>
<!-- 11&#45;&gt;12 -->
<g id="edge24" class="edge">
<title>11&#45;&gt;12</title>
<path fill="none" stroke="#c0c0c0" stroke-width="2" d="M437.7256,-287.8314C430.8608,-279.454 422.5837,-269.3531 415.0627,-260.1749"/>
<polygon fill="#c0c0c0" stroke="#c0c0c0" stroke-width="2" points="417.7479,-257.9297 408.7024,-252.4133 412.3335,-262.3665 417.7479,-257.9297"/>
</g>
<!-- 12&#45;&gt;6 -->
<g id="edge16" class="edge">
<title>12&#45;&gt;6</title>
<path fill="none" stroke="#c0c0c0" stroke-width="2" d="M393.6138,-215.8314C393.6138,-208.131 393.6138,-198.9743 393.6138,-190.4166"/>
<polygon fill="#c0c0c0" stroke="#c0c0c0" stroke-width="2" points="397.1139,-190.4132 393.6138,-180.4133 390.1139,-190.4133 397.1139,-190.4132"/>
</g>
<!-- 13 -->
<g id="node14" class="node">
<title>13</title>
<path fill="none" stroke="#59d856" stroke-width="2" d="M116.2565,-396C116.2565,-396 62.9711,-396 62.9711,-396 56.9711,-396 50.9711,-390 50.9711,-384 50.9711,-384 50.9711,-372 50.9711,-372 50.9711,-366 56.9711,-360 62.9711,-360 62.9711,-360 116.2565,-360 116.2565,-360 122.2565,-360 128.2565,-366 128.2565,-372 128.2565,-372 128.2565,-384 128.2565,-384 128.2565,-390 122.2565,-396 116.2565,-396"/>
<text text-anchor="middle" x="89.6138" y="-375" font-family="sans" font-size="10.00" fill="#000000">trimgalore_pe</text>
</g>
<!-- 13&#45;&gt;9 -->
<g id="edge18" class="edge">
<title>13&#45;&gt;9</title>
<path fill="none" stroke="#c0c0c0" stroke-width="2" d="M89.6138,-359.8314C89.6138,-352.131 89.6138,-342.9743 89.6138,-334.4166"/>
<polygon fill="#c0c0c0" stroke="#c0c0c0" stroke-width="2" points="93.1139,-334.4132 89.6138,-324.4133 86.1139,-334.4133 93.1139,-334.4132"/>
</g>
<!-- 14 -->
<g id="node15" class="node">
<title>14</title>
<path fill="none" stroke="#56a9d8" stroke-width="2" stroke-dasharray="5,2" d="M309.4787,-396C309.4787,-396 233.7488,-396 233.7488,-396 227.7488,-396 221.7488,-390 221.7488,-384 221.7488,-384 221.7488,-372 221.7488,-372 221.7488,-366 227.7488,-360 233.7488,-360 233.7488,-360 309.4787,-360 309.4787,-360 315.4787,-360 321.4787,-366 321.4787,-372 321.4787,-372 321.4787,-384 321.4787,-384 321.4787,-390 315.4787,-396 309.4787,-396"/>
<text text-anchor="middle" x="271.6138" y="-375" font-family="sans" font-size="10.00" fill="#000000">index_rRNA_tRNA</text>
</g>
<!-- 14&#45;&gt;9 -->
<g id="edge19" class="edge">
<title>14&#45;&gt;9</title>
<path fill="none" stroke="#c0c0c0" stroke-width="2" d="M225.6875,-359.8314C201.0215,-350.0734 170.4446,-337.977 144.5277,-327.7242"/>
<polygon fill="#c0c0c0" stroke="#c0c0c0" stroke-width="2" points="145.7962,-324.4621 135.2098,-324.038 143.2211,-330.9713 145.7962,-324.4621"/>
</g>
<!-- 14&#45;&gt;11 -->
<g id="edge23" class="edge">
<title>14&#45;&gt;11</title>
<path fill="none" stroke="#c0c0c0" stroke-width="2" d="M317.2877,-359.8314C341.7106,-350.1162 371.9604,-338.0831 397.6621,-327.8592"/>
<polygon fill="#c0c0c0" stroke="#c0c0c0" stroke-width="2" points="399.2701,-330.9864 407.2683,-324.038 396.6827,-324.4821 399.2701,-330.9864"/>
</g>
<!-- 15 -->
<g id="node16" class="node">
<title>15</title>
<path fill="none" stroke="#d85656" stroke-width="2" d="M245.2809,-324C245.2809,-324 181.9466,-324 181.9466,-324 175.9466,-324 169.9466,-318 169.9466,-312 169.9466,-312 169.9466,-300 169.9466,-300 169.9466,-294 175.9466,-288 181.9466,-288 181.9466,-288 245.2809,-288 245.2809,-288 251.2809,-288 257.2809,-294 257.2809,-300 257.2809,-300 257.2809,-312 257.2809,-312 257.2809,-318 251.2809,-324 245.2809,-324"/>
<text text-anchor="middle" x="213.6138" y="-303" font-family="sans" font-size="10.00" fill="#000000">gunzip_genome</text>
</g>
<!-- 15&#45;&gt;10 -->
<g id="edge20" class="edge">
<title>15&#45;&gt;10</title>
<path fill="none" stroke="#c0c0c0" stroke-width="2" d="M215.8848,-287.8314C216.8474,-280.131 217.992,-270.9743 219.0617,-262.4166"/>
<polygon fill="#c0c0c0" stroke="#c0c0c0" stroke-width="2" points="222.5446,-262.7702 220.3121,-252.4133 215.5987,-261.9019 222.5446,-262.7702"/>
</g>
<!-- 16 -->
<g id="node17" class="node">
<title>16</title>
<path fill="none" stroke="#d8c356" stroke-width="2" d="M478.696,-396C478.696,-396 426.5316,-396 426.5316,-396 420.5316,-396 414.5316,-390 414.5316,-384 414.5316,-384 414.5316,-372 414.5316,-372 414.5316,-366 420.5316,-360 426.5316,-360 426.5316,-360 478.696,-360 478.696,-360 484.696,-360 490.696,-366 490.696,-372 490.696,-372 490.696,-384 490.696,-384 490.696,-390 484.696,-396 478.696,-396"/>
<text text-anchor="middle" x="452.6138" y="-375" font-family="sans" font-size="10.00" fill="#000000">trimgalore_se</text>
</g>
<!-- 16&#45;&gt;11 -->
<g id="edge22" class="edge">
<title>16&#45;&gt;11</title>
<path fill="none" stroke="#c0c0c0" stroke-width="2" d="M452.6138,-359.8314C452.6138,-352.131 452.6138,-342.9743 452.6138,-334.4166"/>
<polygon fill="#c0c0c0" stroke="#c0c0c0" stroke-width="2" points="456.1139,-334.4132 452.6138,-324.4133 449.1139,-334.4133 456.1139,-334.4132"/>
</g>
<!-- 17 -->
<g id="node18" class="node">
<title>17</title>
<path fill="none" stroke="#56d86b" stroke-width="2" stroke-dasharray="5,2" d="M167.3415,-468C167.3415,-468 11.8861,-468 11.8861,-468 5.8861,-468 -.1139,-462 -.1139,-456 -.1139,-456 -.1139,-444 -.1139,-444 -.1139,-438 5.8861,-432 11.8861,-432 11.8861,-432 167.3415,-432 167.3415,-432 173.3415,-432 179.3415,-438 179.3415,-444 179.3415,-444 179.3415,-456 179.3415,-456 179.3415,-462 173.3415,-468 167.3415,-468"/>
<text text-anchor="middle" x="89.6138" y="-452" font-family="sans" font-size="10.00" fill="#000000">fastqc_pe_pre</text>
<text text-anchor="middle" x="89.6138" y="-442" font-family="sans" font-size="10.00" fill="#000000">sample: RNAseq_UV_24h_MRC5VA</text>
</g>
<!-- 17&#45;&gt;13 -->
<g id="edge25" class="edge">
<title>17&#45;&gt;13</title>
<path fill="none" stroke="#c0c0c0" stroke-width="2" d="M89.6138,-431.8314C89.6138,-424.131 89.6138,-414.9743 89.6138,-406.4166"/>
<polygon fill="#c0c0c0" stroke="#c0c0c0" stroke-width="2" points="93.1139,-406.4132 89.6138,-396.4133 86.1139,-406.4133 93.1139,-406.4132"/>
</g>
<!-- 18 -->
<g id="node19" class="node">
<title>18</title>
<path fill="none" stroke="#d6d856" stroke-width="2" d="M489.9216,-468C489.9216,-468 415.306,-468 415.306,-468 409.306,-468 403.306,-462 403.306,-456 403.306,-456 403.306,-444 403.306,-444 403.306,-438 409.306,-432 415.306,-432 415.306,-432 489.9216,-432 489.9216,-432 495.9216,-432 501.9216,-438 501.9216,-444 501.9216,-444 501.9216,-456 501.9216,-456 501.9216,-462 495.9216,-468 489.9216,-468"/>
<text text-anchor="middle" x="452.6138" y="-452" font-family="sans" font-size="10.00" fill="#000000">fastqc_se_pre</text>
<text text-anchor="middle" x="452.6138" y="-442" font-family="sans" font-size="10.00" fill="#000000">sample: HeLa_WT</text>
</g>
<!-- 18&#45;&gt;16 -->
<g id="edge26" class="edge">
<title>18&#45;&gt;16</title>
<path fill="none" stroke="#c0c0c0" stroke-width="2" d="M452.6138,-431.8314C452.6138,-424.131 452.6138,-414.9743 452.6138,-406.4166"/>
<polygon fill="#c0c0c0" stroke="#c0c0c0" stroke-width="2" points="456.1139,-406.4132 452.6138,-396.4133 449.1139,-406.4133 456.1139,-406.4132"/>
</g>
</g>
</svg>
